/* XPM */
static char *f252cbbe79f049f69c31d9c426f41c68auvLz6x3xTGG5Q2L[] = {
/* columns rows colors chars-per-pixel */
"50 50 203 2 ",
"   c #750303",
".  c #7C0405",
"X  c #7C0906",
"o  c #770409",
"O  c #7D0609",
"+  c #7D090A",
"@  c #840404",
"#  c #8B0504",
"$  c #820906",
"%  c #8B0806",
"&  c #840608",
"*  c #8C0608",
"=  c #83090A",
"-  c #8B0A0A",
";  c #920201",
":  c #940202",
">  c #950303",
",  c #960202",
"<  c #920402",
"1  c #900403",
"2  c #940403",
"3  c #910505",
"4  c #920605",
"5  c #900606",
"6  c #930706",
"7  c #920607",
"8  c #900407",
"9  c #940404",
"0  c #940605",
"q  c #950407",
"w  c #970507",
"e  c #960605",
"r  c #940505",
"t  c #9A0000",
"y  c #990302",
"u  c #9C0403",
"i  c #990304",
"p  c #9C0305",
"a  c #990505",
"s  c #980404",
"d  c #980607",
"f  c #990707",
"g  c #980606",
"h  c #9A0506",
"j  c #9D0504",
"k  c #9F0505",
"l  c #9D0606",
"z  c #9B0405",
"x  c #900906",
"c  c #930907",
"v  c #900A07",
"b  c #960807",
"n  c #940807",
"m  c #940907",
"M  c #9B0907",
"N  c #930708",
"B  c #960508",
"V  c #970508",
"C  c #950608",
"Z  c #970709",
"A  c #95060A",
"S  c #96070B",
"D  c #950609",
"F  c #9B0608",
"G  c #98070A",
"H  c #980609",
"J  c #9D0708",
"K  c #9C0709",
"L  c #9F0608",
"P  c #9C0708",
"I  c #930909",
"U  c #90080A",
"Y  c #920A0A",
"T  c #900A09",
"R  c #940809",
"E  c #950908",
"W  c #96090A",
"Q  c #960C0A",
"!  c #97080C",
"~  c #930A0A",
"^  c #980808",
"/  c #9A0809",
"(  c #99090B",
")  c #9A080B",
"_  c #9D0909",
"`  c #9C0808",
"'  c #9D080A",
"]  c #9F090A",
"[  c #9F0B0B",
"{  c #9E0A0A",
"}  c #9F0A0C",
"|  c #9B0A0A",
" . c #9D140E",
".. c #8D0F11",
"X. c #950E12",
"o. c #9B0C10",
"O. c #8E1011",
"+. c #961114",
"@. c #9C1613",
"#. c #9D1813",
"$. c #A00503",
"%. c #A10604",
"&. c #A00606",
"*. c #A10707",
"=. c #A20607",
"-. c #A20705",
";. c #A40404",
":. c #AB0404",
">. c #A40907",
",. c #A30906",
"<. c #AB0906",
"1. c #A20609",
"2. c #AB0608",
"3. c #A30909",
"4. c #A20A09",
"5. c #A1080A",
"6. c #A00A0B",
"7. c #A40809",
"8. c #A50A08",
"9. c #A10B0D",
"0. c #A30A0C",
"q. c #A20C0D",
"w. c #A40A0B",
"e. c #AB0B0A",
"r. c #B30404",
"t. c #BB0404",
"y. c #B30807",
"u. c #BD0906",
"i. c #B30609",
"p. c #BC0709",
"a. c #B30B0B",
"s. c #BB0C0B",
"d. c #AB110E",
"f. c #B4100E",
"g. c #BF120F",
"h. c #A10F13",
"j. c #A90F11",
"k. c #B30F10",
"l. c #BB0E10",
"z. c #A71212",
"x. c #A81315",
"c. c #A31917",
"v. c #AD1B16",
"b. c #A51A19",
"n. c #B31211",
"m. c #BB1111",
"M. c #B61B16",
"N. c #B71B1C",
"B. c #B6211F",
"V. c #BC231D",
"C. c #AB2A24",
"Z. c #B62520",
"A. c #C40404",
"S. c #CC0404",
"D. c #C20805",
"F. c #CB0806",
"G. c #C20709",
"H. c #CA0609",
"J. c #C40C0B",
"K. c #CC0B0B",
"L. c #D30403",
"P. c #DB0304",
"I. c #D30A05",
"U. c #DB0A06",
"Y. c #D60509",
"T. c #DC070B",
"R. c #D40C0C",
"E. c #DC0B0B",
"W. c #C1120F",
"Q. c #CB110E",
"!. c #D6120E",
"~. c #DC110C",
"^. c #C50F12",
"/. c #CB0F10",
"(. c #D30E11",
"). c #DD0D12",
"_. c #C41212",
"`. c #CB1212",
"'. c #D41112",
"]. c #DC1212",
"[. c #E20405",
"{. c #E30807",
"}. c #E20408",
"|. c #EB0609",
" X c #E40C0B",
".X c #EA0D0D",
"XX c #F00B0E",
"oX c #E4110F",
"OX c #E9110F",
"+X c #E40D12",
"@X c #EA0D11",
"#X c #F20E11",
"$X c #E31212",
"%X c #ED1213",
"&X c #E61B17",
"*X c #E41618",
"=X c #F21315",
"-X c #F41518",
";X c #C72321",
":X c #C62825",
">X c #DC2827",
",X c #D52728",
"<X c #C93332",
/* pixels */
"' } / 9 q ! R # R I * # # @ % $ $ $ $ $ . .               X X X . @ @ # % % # @ # r I # # : h ^ w.} ",
"6.} ' q q S S 8 N I c c % % % @ $ $ .     . . X           X     . @ @ @ @ % % % # # # < c , , q ' [ ",
"q.' h h h A S A R R c c % % @ % . $ @ $ $ X .     o X X X . . @ . @ @ @ @ # # r 4 # # , / b u q k | ",
"0.L h h h V A G / R < % % # @ @ % @ @ . . . . . o o o X O X @ @ @ . @ @ @ # # # c b b < < k ^ u ' k ",
"*.k k k L S K K S q < < # % * * $ @ . . . . . .       . . . & & & $ % @ @ # # # # b ^ , < u ^ k 6.' ",
"k k k 6.' K h S q S b c * % * # @ . @ @ @ .         . . O & @ . & % * * # # # # < < q ' ' , u w.*.k ",
"%.%.7.6.6.' L K K S b 0 # # @ @ % @ @   . . . @ . . . O & & & @ & @ % * 1 1 r * < < < 6.w.k k -.*.*.",
"*.>.>.7.6.' ' K / ^ b < # # # # @ @ @ @ @ @ .   o . . . . & = = - @ % * * S R b < < < : ^ -.k u 1.>.",
"e.>.,.8.0.6.=.L / / / 1 1 N * # @ * * @ . . . . o O O O & . & * % % T T % b b / h i : =.u 7.7.*.;.<.",
"e.%.<.d.;.*.j.L ' q q S S * # * U @ . & = & & + O & O O O & & & @ % T Q T | ^ ' ' : L i ;.*.e.7.;.;.",
"<.<.e.e.;.6.j.=.k i q / S # * U @ - ..& @ X + + + + + = O $ & * % % v v  .| | ^ } k 7.;.;.u e.d.2.2.",
";.a.<.:.a.e.>.7.h 6.' q 1 ! I * X.* @ = O.= O O o o + + X $ & % % % c c b | [  .w.w.>.8.;.;.2.a.e.e.",
":.s.y.:.y.e.;.:.=.1.=.h h K / I # ! +.- . O = X o . . O . @ @ @ # % b 0 b k w.d.w.e.<.e.:.2.;.:.s.a.",
"s.r.y.f.<.y.:.;.e.;.;.1.&.A q / ) # # - +.= O = X O X X @ & @ % # r b h M M w.d.<.d.a.a.s.r.:.r.a.s.",
"W.:.y.W.y.:.y.:.i.:.:.8.1.k h ' < | o.* & = = X X X X . & % % # < r h k M ,.<.<.f.a.a.y.l.i.r.r.p.s.",
"W.t.t.g.s.r.:.y.:.:.e.2.>.*.=.k / q r * * @ O . .   . . @ & * # < < u M -.;.,.2.f.m.y.s.J.s.r.p.u.J.",
"u.u.s.s.u.:.s.y.:.a.<.;.<.>.M k q.q R R * * & . . + X $ % $ @ R K 9 k =.>.>.<.<.y.g.g.y.s.J.J.i.J.s.",
"u.D.Q.u.D.r.s.t.y.s.s.:.a.>.>.k 7.' | I # @ .         % * * * 9 1.&.k 2.:.a.y.i.s._.W.u.^.J./.t.G.A.",
"A.A.'.t.J.A.J.t.^.J.p.i.a.:.:.<.>.w.| - * # @ $ = . + % - @ R k k 0.1.2.:.l.s.:.s.J.Q.A./.K.(.A.H.J.",
"I.F.'.S.H.A.F.A.H.H.t.J.i.a.:.a.:.d.M v % @ @ @ .   X . # # } =.;.2.k.:.r.i.^.p.A.K.'.F.R.R.(.H.K.K.",
"R.F.R.R.S.F.S.K.K.A.u.J.s.y.y.y.r.f.-.^ b < # @ @ $ $ #.< } k 2.i.<.s.y.p.s.^.^.A.K.'.R.I.].R.R.L.Y.",
"oXE.L.+XS.E.S.U.R.D.K.A.Q.t.W.u.t.g.:.:.>.8.M.v.c.C.c.<Xk.:X:.r.u.u.r.K.t.K.H.R.S.(.!.].Y.].U.$XS.E.",
"+X+XY.$XP.E.U.E.E.L.$XL.R.A.'.F.F.K.t.t.p.l.;XV.v.B.x.,X`.>XD.H.F.F.A.E.S.R.F.R.Y.Y.+X+X{.OXE.$XP.U.",
"|.@X}.@XT.{.{.P.|.[. X{.P.P. X}.S.I.L.R.H.A.s.;.f.M.a.H.K.'.F.Y.L.L.L.E.L.E.U.U.+XT.@X%XOXOX{..XP.{.",
".X%X|.OX{..X{.OX.X[.=X.X[.}.@X+X}.}.).+X).K.`.`.:.:.u.K.].K.&X X~. X[.OX{.U.U.U..X{..X-X@X=X@X@XP.|.",
"#X#X|.XX[.=X[..X.XP.#X.X}. X$X X+XT.).).(.`._.s.,.M <.D.].R.*X.X X{.[.OX{.OX[.[.OX{.OX=X@X-X X%XP..X",
".X|.[.OX[..X[.|.oXP.%XT.T.Y.$XR.).Y.S.H.G.s.i.i.8.M d.:.^.`.'.).E.E.P. XL.OXL.P.oXU. X X@X%X}. XP. X",
"E.U.I.$XL.~.L.~.E.L.*XL.E.A.(.H.H.A.t.p.r.:.>.u B.B.B.,.a.m.n.a.Q.A.F.F.A.!.S.S.U.P. XT.$X%XL.{.L.}.",
"!.I.I.].S.~.S.R.R.F.'.H.F.D.K.u.s.y.i.e.k i r # x.c.b.k 0.x.8.n._.t.J.A.u.K.S.H.R.S.U.I.oX$XL.Y.S.E.",
"I.I.I.~.S.I.I.F.J.K.A.`.u.s.y.f.a.8.<.6.q % % & @   $ r L / 0.m.y.r.u.r.A.J.F.F.F.D.F.R.!.R.F.I.Y.E.",
"I.L.L.R.F.A.K.A.J.J.t._.p.i.<.f.<.%.*./ I % = @ = X X c b b ' e.;.:.:.r.s.r.t.J.u.D.J.K.Q.A.K.F.F.(.",
"F.K.A.Q.J.t.`.t.J.u.p.s.s.;.<.e.:.%.h b - * = + . X . # # %  .u i 8.;.<.y.:.:.a.u.u.J.J.K.t.Q.t.F.J.",
"D.K.u.J.^.p._.i.y.s.k.i.2.0.0.6.w.M c < c - * O O . . @ * - % I / 9 i >.e.e.:.a.i.a.y.^.s.p.u.t.J.t.",
"D.J.t.t.l.s.i.l.:.i.a.a.e.0.6.k [ M 4 % * * & & & O . . = % r I < 9 L *.;.;.:.a.i.y.g.y.y.u.t.t.u.p.",
"J.u.p.r.s.l.:.l.a.:.2.e.d.w.k ^ M M v % # @ @ @ O O O & @ @ # @ < / } k u ;.2.e.:.:.m.i.r.i.r.t.t.p.",
"p.s.^.r.:.a.:.:.k.2.;.:.7.8.' q m m v % # @ . . . . . + @ . @ # S R S K L =.2.1.2.2.a.:.:.y.r.y.r.r.",
"i.y.m.y.:.e.e.>.e.e.>.*.' [ | b < % % % * & % + X o     . @ @ v N * < S h k L =.e.2.;.2.<.:.r.:.r.r.",
"a.i.<.f.:.;.e.7.;.1.e.6.h h / Q 4 % @ @ & & $ + o X X $ . @ # % * # c ^ h 9 L q.7.;.u 2.a.;.:.:.i.:.",
"y.y.:.a.e.;.>.e.k L 6.*.h b c Q T v * & @ & @ . X o + = % @ @ @ # # 4 0 q ^ k 0.L L k 1.>.:.:.;.i.i.",
":.y.:.2.n.e.u ;.q.k i h / / R - r % = & & @ . . X     .   @ @ # # # # # q | b : h k 0.;.;.;.;.2.:.i.",
";.e.2.=.j.j.h : K L q < q / Q c # * % = & X . . o o o O O @ @ # @ # - N r N S K L ' -.k k %.;.;.2.2.",
"2.;.2.0.k 0.j.k q / / b # # - Q - * @ @ + & + % X X . . . . @ @ # @ # # - r q S ' ' u k k k %.;.e.a.",
";.1.&.p L ' o.h.q < < b r # # # U Y - = $ X +     . . . . @ & & @ @ % # * b R S ^ ^ u i u k *.>.e.8.",
";.0.;.V h.G A h.| c # * T I @ @ @ @ & = = + $ + O O O O . . . . @ @ % % * * I Q b q < < h k 6.=.7.7.",
"0.h V 0.V V o.A Q X.Q % % @ - - & @ .   . O & X . . . o O O . . & = * * * U I ! < < , q ^ ' ' 6.0.0.",
"0.p V h 9 A H A ! Q  .T @ % % = = & @ @ . . .   o   o . O = & ..- * @ % - N - # # * c R / ' [ ' 6.0.",
"h q.L < V 9 # / % r % T O.- @ @ @ @ & & X = O O + + o + O O = = * * = * # # # # r r R R / / ' ' ' ' ",
"u k h.L < 1 K # ! % % T O.- - - & & & @ . O O O o o o O O O O = & - ..- # @ @ * I I Q / R / k 6.' ' ",
"< h h ^ / 4 # R # # # % # % - ..= = = = & + O O + + + + ..+ = = = @ @ @ @ # * U # Q N Q | ^ b ' k / ",
", h q b [ b # R * * # # # @ $ % - - ..= = = + = = + + + + = = = @ @ @ & # # * - # o.* / M ^ q [ h h "
};
