/* XPM */
static char *db835170d182426b93836382e48e1074sjPK4SyyzeCX817j[] = {
/* columns rows colors chars-per-pixel */
"108 54 174 2 ",
"   c None",
".  c #FFFFFF",
"X  c #0D0D0D",
"o  c #161616",
"O  c #1C1C1C",
"+  c #222222",
"@  c #262626",
"#  c #2A2A2A",
"$  c #2E2E2E",
"%  c #323232",
"&  c #353535",
"*  c #383838",
"=  c #3B3B3B",
"-  c #3D3D3D",
";  c #404040",
":  c #424242",
">  c #454545",
",  c #474747",
"<  c #494949",
"1  c #4B4B4B",
"2  c #4D4D4D",
"3  c #515151",
"4  c #535353",
"5  c #555555",
"6  c #565656",
"7  c #585858",
"8  c #5A5A5A",
"9  c #5C5C5C",
"0  c #5D5D5D",
"q  c #5F5F5F",
"w  c #606060",
"e  c #626262",
"r  c #636363",
"t  c #656565",
"y  c #666666",
"u  c #686868",
"i  c #696969",
"p  c #6A6A6A",
"a  c #6C6C6C",
"s  c #6D6D6D",
"d  c #6E6E6E",
"f  c #707070",
"g  c #717171",
"h  c #737373",
"j  c #757575",
"k  c #767676",
"l  c #777777",
"z  c #787878",
"x  c #797979",
"c  c #7A7A7A",
"v  c #7C7C7C",
"b  c #7D7D7D",
"n  c #7E7E7E",
"m  c #7F7F7F",
"M  c #808080",
"N  c #828282",
"B  c #848484",
"V  c #858585",
"C  c #878787",
"Z  c #888888",
"A  c #898989",
"S  c #8A8A8A",
"D  c #8B8B8B",
"F  c #8C8C8C",
"G  c #8D8D8D",
"H  c #8E8E8E",
"J  c 8F8F8F",
"K  c #909090",
"L  c #919191",
"P  c #939393",
"I  c #949494",
"U  c #959595",
"Y  c #969696",
"T  c #979797",
"R  c #999999",
"E  c #9A9A9A",
"W  c #9B9B9B",
"Q  c #9C9C9C",
"!  c #9D9D9D",
"~  c #9E9E9E",
"^  c #9F9F9F",
"/  c #A0A0A0",
"(  c #A1A1A1",
")  c #A3A3A3",
"_  c #A4A4A4",
"`  c #A5A5A5",
"'  c #A6A6A6",
"]  c #A7A7A7",
"[  c #A9A9A9",
"{  c #AAAAAA",
"}  c #ABABAB",
"|  c #ADADAD",
" . c #AEAEAE",
".. c #AFAFAF",
"X. c #B0B0B0",
"o. c #B1B1B1",
"O. c #B2B2B2",
"+. c #B3B3B3",
"@. c #B4B4B4",
"#. c #B5B5B5",
"$. c #B6B6B6",
"%. c #B7B7B7",
"&. c #B8B8B8",
"*. c #B9B9B9",
"=. c #BABABA",
"-. c #BBBBBB",
";. c #BCBCBC",
":. c #BDBDBD",
">. c #BEBEBE",
",. c #BFBFBF",
"<. c #C0C0C0",
"1. c #C1C1C1",
"2. c #C2C2C2",
"3. c #C3C3C3",
"4. c #C4C4C4",
"5. c #C5C5C5",
"6. c #C6C6C6",
"7. c #C7C7C7",
"8. c #C8C8C8",
"9. c #C9C9C9",
"0. c #CACACA",
"q. c #CBCBCB",
"w. c #CCCCCC",
"e. c #CDCDCD",
"r. c #CECECE",
"t. c #CFCFCF",
"y. c #D0D0D0",
"u. c #D1D1D1",
"i. c #D2D2D2",
"p. c #D3D3D3",
"a. c #D4D4D4",
"s. c #D5D5D5",
"d. c #D6D6D6",
"f. c #D7D7D7",
"g. c #D8D8D8",
"h. c #D9D9D9",
"j. c #DADADA",
"k. c #DBDBDB",
"l. c #DCDCDC",
"z. c #DDDDDD",
"x. c #DEDEDE",
"c. c #DFDFDF",
"v. c #E0E0E0",
"b. c #E1E1E1",
"n. c #E2E2E2",
"m. c #E3E3E3",
"M. c #E4E4E4",
"N. c #E5E5E5",
"B. c #E6E6E6",
"V. c #E7E7E7",
"C. c #E8E8E8",
"Z. c #E9E9E9",
"A. c #EAEAEA",
"S. c #EBEBEB",
"D. c #ECECEC",
"F. c #EDEDED",
"G. c #EEEEEE",
"H. c #EFEFEF",
"J. c #F0F0F0",
"K. c #F1F1F1",
"L. c #F2F2F2",
"P. c #F3F3F3",
"I. c #F4F4F4",
"U. c #F5F5F5",
"Y. c #F6F6F6",
"T. c #F7F7F7",
"R. c #F8F8F8",
"E. c #F9F9F9",
"W. c #FAFAFA",
"Q. c #FBFBFB",
"!. c #FCFCFC",
"~. c #FDFDFD",
"^. c #FEFEFE",
"/. c #000000",
/* pixels */
"                                                                                                                                                                                                                        ",
"                                                                                                                                                                                                                        ",
"      /././././././././././././././.                                                                      /././././.        /./././././.                                                                                ",
"      /.*.. . . . . . . . . . . v./.                                                                      /.d * * /.      /.Y.h * * } /.                                                                                ",
"      /.*.. . . . . . . . . . ! /./.                                                                      /.9 . . /.    /.W.M . . J /./.                                                                                ",
"      /.*.. . . . . . . . . * L./.                                                                        /.9 . . /.  /./.W . . j W./.                                                                                  ",
"      /./././././././.z.. . >./.                                                                          /.9 . . /././.#.. . r Y./.                                                                                    ",
"                  /./.d . t /./.                              /././././.                      /./././.    /.9 . . /./.8.. . < G./.                    /././.                                  /././.                    ",
"                  /.>.. . g./.                              /./.B.8.f.Y././././././././././././.z.f.G./././.9 . . /.g.O . % B./.                /././.L.C.Y./././.      /./././././.        /./.u./.                    ",
"                /.L.* . L /./.                            /.G.n . . . $ <.w.. . g././.8.. . g.M . . . G././.9 . . B.- . o g././.              /.W.#.5 . . . j u././.    /.<.. . C./.      /./.! M /.                    ",
"              /./.U . # G./.                            /.G.3 . . . . . . J . . g././.8.. . S . . . M /././.9 . . 5 . . 8././.              /.G.i . . . . . . . ! /./.  /.<.. . C./.    /.W.J . M /.                    ",
"              /.g.. . #./.                              /.J . . B B./.G.! . . . g././.8.. . X 8./.G.C./.  /.9 . . o . . f././.            /.Y.9 . . ..L./.v.z . . #./.  /.<.. . G./.  /.Y.z . . M /.                    ",
"            /./.r . 7 W./.                            /.L.. . r W././././.j . . g././.8.. . U /././././.  /.9 . . >.. . - C./.            /.X.. . .././././.W.d . o G././.<.. . C././.L.t . . . M /.                    ",
"            /.#.. . u./.            /./././././././././.u.. . #./.      /.<.. . g././.w.. . 8./.          /.9 . . /.U . . i W./.          /.7 . # W./.      /.u.. . *././.<.. . C./.C.3 . . X . M /.                    ",
"          /.G.# . B /./.            /., O O O O O X././.<.. . f./.      /.g.. . g././.8.. . v./.          /.9 . . /.W.i . . L /./.        W.. . j /.        /.G.. . W /./.<.. . G.z.; . X 5.5 . M /.                    ",
"        /./.S . o C./.              /.* . . . . . X././.<.. . f./.      /.w.. . g././.8.. . v./.          /.9 . . /./.C.& . . *././.      /.. . i /.        /.G.. . U /./.<.. . *.# . + u./.5 . M /.                    ",
"        /.u.. . } /./.              /.u.w.w.w.w.w.B././.u.. . *./.    /./.] . . g././.8.. . z./.          /.9 . . /././.u.. . X g./.      /.h . . G./.    /./.5.. . *././.<.. . . . % g././.5 . M /.                    ",
"      /.W.5 . 2 Y./././././././././././././././././././.G.. . < L./././.v.o . . g././.w.. . z./.          /.9 . . /.  /./.} . . ; G./.    /.5.. . L /./././.B.; . O G././.<.. . . ; v./././.5 . M /.                    ",
"    /./.... . i ( ( ( ( ( ( ( ( 8./.                    /.S . . 5 5.g.#.# . . . g././.8.. . z./.          /.9 . . /.    /.W.n . . d W./.  /./.B . . n 8.f.} + . . >./.  /.<.. . 3 C././.  /.5 . M /.                    ",
"    /.C.O . . . . . . . . . . . ! /.                    /.C.& . . . . . . r . . g././.8.. . z./.          /.9 . . /.      /.L.2 . . U /./.  /.Y.L . . . . . . o *././.  /.<.. 9 G././.    /.5 . M /.                    ",
"    /.M . . . . . . . . . . . . ! /.                    /./.z.9 . . . o X.w.. . g././.8.. . z./.          /.9 . . /.        /.z.o . . >./.    /./.f.L < @ r ] C././.    /.<.h L./.        /.5 . M /.                    ",
"    /./././././././././././././././.                      /././.z.w.f.Y././././././././././././.          /././././.        /././././././.      /././././././././.      /.z.Y./.          /././././.                    ",
"                                                              /././././.                                                                                                /././.                                          ",
"                                                                                                                                                                                                                        ",
"                                                                                                                                                                                                                        ",
"                                                                                                                                                                                                                        ",
"                                                                                                                                                                                                                        ",
"                                                                                                                                                                                    /./././././.                        ",
"                  /././.                                                                /./././.W.W./././././.                                                          /././././.  /.z.. . 8./.                        ",
"                /.G.f./.                                                            /./.Y.5.S < . . % n #.B././.                                                        /.C.9 t G././.z.. . 8./.                        ",
"                /.] h /./.                                                        /./.5.; . . . . . . . . . ! /.                                                        /.#.. . >././.z.. . w./.                        ",
"              /.L.@ . f./.                                                      /./.] . . 5 <.C./.W.G.u.S . B /.                                                        /.B.5 r G././.v.. . 8./.                        ",
"              /.... . n /./.                                                  /./.X.. . S W./././.  /././.z.} /.                                                        /././././././.z.. . 8./.                        ",
"            /.Y.& # L . z./.                    /./././.                      /.v.. . i W./.            /./././.        /./././././.                              /././.            /.z.. . 8./.                        ",
"            /.#.. U u.. B /./.        /./././././.z.f.G././.                  /.S . . f./.                          /././.C.w.8.z.W././.    /./././././.        /./.u././././././././.v.. . 8./.    /././././.          ",
"          /.Y.; . g.W., . v./.        /.8.. . g.n . . . C./.                /.L.. . 7 /./.                        /./.v.j . . . . ; >././.  /.<.. . C./.      /./.! M /./.8.. . v././.z.. . w./.  /.W...} } G.          ",
"          /.>.. 9 /./.... J /./.      /.8.. . S . . . M /./.                /.f.. . ! /.                          /.f.+ . . . . . . . ( /././.<.. . G./.    /.W.J . M /./.8.. . B././.z.. . 8././.W.n . X 8./.          ",
"        /.W.< . >././.C.. . v./.      /.w.. . X 8./.L.C./.                  /.5.. . X./.                        /.L.* . . X.L.W.z.9 . . v././.<.. . C./.  /.Y.z . . M /./.8.. . v././.z.. . 8./.Y.z . o w././.          ",
"        /.5.. o L./././.n . U /./.    /.8.. . U /././././.                  /.>.. . } /.                        /.*.. . ! /./././.B.. . .././.<.. . C././.L.t . . . M /./.8.. . B././.z.. . 8.W.j . + f././.            ",
"      /./.7 . t 8.8.8.8.W . . C./.    /.w.. . 8./.        /./././././././././.u.. . z /.                        /.M . . B./././././.t . d /./.<.. . G./.C.3 . . X . M /./.w.. . v././.v.. . <.j . # f././.              ",
"      /.8.. . . . . . . . . . W /./.  /.8.. . v./.        /., O O O O O X././.G.. . . G./.                      /.2 . . i i t i i t * . % /./.<.. . C.z.; . X 5.5 . M /./.8.. . B././.z.. . @ . . *././.                ",
"    /./.t . . . . . . . . . . o G./.  /.8.. . v./.        /.* . . . . . X./.  /.n . . W /./.              /./././.3 . . . . . . . . . . . W./.<.. . *.$ . + u./.5 . M /./.8.. . v././.z.. . ] & . & B./.                ",
"    /.w.. . w././././././.L.O . ( /.  /.8.. . z./.        /.u.w.w.w.w.w.B./.  /.f.. . . <././.        /./.G.<././.B . 5 /././././././././././.<.. . . . % g././.5 . M /./.8.. . v././.z.. . w.g.O . 2 G./.              ",
"  /./.d . < W./.          /.U . + L././.w.. . v./.        /././././././././.  /./.] . . . ( L././././.L.#.% W /./.5.. . g./././././.U ( C././.<.. . . ; v./././.5 . M /./.8.. . B././.z.. . 8./.8.. . r Y./.            ",
"  /.f.. . X./.            /.g.. . } /./.8.. . z./.                              /./.] . . . X z ( ! n X . . W /./.W.i . ; w.Y.W.z.M . . #././.<.. . 3 C././.  /.5 . M /./.8.. . v././.z.. . 8././.X.. . z W./.          ",
"  /.j . X G./.            /./.9 . # L./.w.. . z./.                                /./.f.7 . . . . . . . . 2 u./.  /.G.r . . . . . . X X./././.<.. r G././.    /.5 . M /./.8.. . v././.z.. . 8./././.! . . J /./.        ",
"  g.. . J /.                /.>.. . ../.8.. . v./.                                  /././.u.! t * # 7 U 8.W././.    /.Y.*.h O $ r ( v././.  /.<.h L./.        /.5 . M /./.8.. . B././.z.. . 8./.  /.W.M . . ( /.        ",
"  /././././.                /././././././././././.                                      /./././././././././.          /././././././././.    /.g.Y./.          /././././././././././././././././.    /./././././.        ",
"                                                                                                                                            /././.                                                                      ",
"                                                                                                                                                                                                                        ",
"                                                                                                                                                                                                                        ",
"                                                                                                                                                                                                                        ",
"                                                                                                                                                                                                                        ",
"                                                                                                                                                                                                                        "
};
