/* XPM */
static char *_2747ef47e2f4985c5df54fbc2220ed8x8ck6d1uJALFMzNk[] = {
/* columns rows colors chars-per-pixel */
"156 26 4 1 ",
"  c None",
". c #FFFFFF",
"X c #FFCA18",
"o c #C3C3C3",
/* pixels */
"               ............................................................................................................................................ ",
"              .XXXXXXXXXXXXXXXXXXXXXXXXXXX.XXXXXXXXXXXXXXXXXXXXXXXXXXX.XXXXXXXXXXXXXXXXXXXXXXXXXXX.ooooooooooooooooooooooooooo.ooooooooooooooooooooooooooo. ",
"              .XXXXXXXXXXXXXXXXXXXXXXXXXXX.XXXXXXXXXXXXXXXXXXXXXXXXXX.XXXXXXXXXXXXXXXXXXXXXXXXXXXX.ooooooooooooooooooooooooooo.oooooooooooooooooooooooooo.  ",
"             .XXXXXXXXXXXXXXXXXXXXXXXXXXX.XXXXXXXXXXXXXXXXXXXXXXXXXXX.XXXXXXXXXXXXXXXXXXXXXXXXXXX.ooooooooooooooooooooooooooo.ooooooooooooooooooooooooooo.  ",
"            .XXXXXXXXXXXXXXXXXXXXXXXXXXX.XXXXXXXXXXXXXXXXXXXXXXXXXXX.XXXXXXXXXXXXXXXXXXXXXXXXXXX.oooooooooooooooooooooooooooo.oooooooooooooooooooooooooo.   ",
"            .XXXXXXXXXXXXXXXXXXXXXXXXXXX.XXXXXXXXXXXXXXXXXXXXXXXXXXX.XXXXXXXXXXXXXXXXXXXXXXXXXXX.ooooooooooooooooooooooooooo.ooooooooooooooooooooooooooo.   ",
"           .XXXXXXXXXXXXXXXXXXXXXXXXXXX.XXXXXXXXXXXXXXXXXXXXXXXXXXX.XXXXXXXXXXXXXXXXXXXXXXXXXXX.ooooooooooooooooooooooooooo.ooooooooooooooooooooooooooo.    ",
"           .XXXXXXXXXXXXXXXXXXXXXXXXXX.XXXXXXXXXXXXXXXXXXXXXXXXXXX.XXXXXXXXXXXXXXXXXXXXXXXXXXXX.ooooooooooooooooooooooooooo.oooooooooooooooooooooooooo.     ",
"          .XXXXXXXXXXXXXXXXXXXXXXXXXXX.XXXXXXXXXXXXXXXXXXXXXXXXXXX.XXXXXXXXXXXXXXXXXXXXXXXXXXX.ooooooooooooooooooooooooooo.ooooooooooooooooooooooooooo.     ",
"          .XXXXXXXXXXXXXXXXXXXXXXXXXX.XXXXXXXXXXXXXXXXXXXXXXXXXXX.XXXXXXXXXXXXXXXXXXXXXXXXXXX.ooooooooooooooooooooooooooo.ooooooooooooooooooooooooooo.      ",
"         .XXXXXXXXXXXXXXXXXXXXXXXXXXX.XXXXXXXXXXXXXXXXXXXXXXXXXXX.XXXXXXXXXXXXXXXXXXXXXXXXXXX.ooooooooooooooooooooooooooo.ooooooooooooooooooooooooooo.      ",
"        .XXXXXXXXXXXXXXXXXXXXXXXXXXX.XXXXXXXXXXXXXXXXXXXXXXXXXXX.XXXXXXXXXXXXXXXXXXXXXXXXXXX.ooooooooooooooooooooooooooo.ooooooooooooooooooooooooooo.       ",
"        .XXXXXXXXXXXXXXXXXXXXXXXXXX.XXXXXXXXXXXXXXXXXXXXXXXXXXX.XXXXXXXXXXXXXXXXXXXXXXXXXXXX.ooooooooooooooooooooooooooo.oooooooooooooooooooooooooo.        ",
"       .XXXXXXXXXXXXXXXXXXXXXXXXXXX.XXXXXXXXXXXXXXXXXXXXXXXXXXX.XXXXXXXXXXXXXXXXXXXXXXXXXXX.ooooooooooooooooooooooooooo.ooooooooooooooooooooooooooo.        ",
"       .XXXXXXXXXXXXXXXXXXXXXXXXXX.XXXXXXXXXXXXXXXXXXXXXXXXXXX.XXXXXXXXXXXXXXXXXXXXXXXXXXX.ooooooooooooooooooooooooooo.ooooooooooooooooooooooooooo.         ",
"      .XXXXXXXXXXXXXXXXXXXXXXXXXXX.XXXXXXXXXXXXXXXXXXXXXXXXXXX.XXXXXXXXXXXXXXXXXXXXXXXXXXX.ooooooooooooooooooooooooooo.ooooooooooooooooooooooooooo.         ",
"      .XXXXXXXXXXXXXXXXXXXXXXXXXX.XXXXXXXXXXXXXXXXXXXXXXXXXXX.XXXXXXXXXXXXXXXXXXXXXXXXXXX.ooooooooooooooooooooooooooo.ooooooooooooooooooooooooooo.          ",
"     .XXXXXXXXXXXXXXXXXXXXXXXXXX.XXXXXXXXXXXXXXXXXXXXXXXXXXX.XXXXXXXXXXXXXXXXXXXXXXXXXXXX.ooooooooooooooooooooooooooo.oooooooooooooooooooooooooo.           ",
"     .XXXXXXXXXXXXXXXXXXXXXXXXXX.XXXXXXXXXXXXXXXXXXXXXXXXXXX.XXXXXXXXXXXXXXXXXXXXXXXXXXX.ooooooooooooooooooooooooooo.ooooooooooooooooooooooooooo.           ",
"    .XXXXXXXXXXXXXXXXXXXXXXXXXX.XXXXXXXXXXXXXXXXXXXXXXXXXXX.XXXXXXXXXXXXXXXXXXXXXXXXXXX.ooooooooooooooooooooooooooo.ooooooooooooooooooooooooooo.            ",
"   .XXXXXXXXXXXXXXXXXXXXXXXXXXX.XXXXXXXXXXXXXXXXXXXXXXXXXXX.XXXXXXXXXXXXXXXXXXXXXXXXXXX.ooooooooooooooooooooooooooo.oooooooooooooooooooooooooo.             ",
"   .XXXXXXXXXXXXXXXXXXXXXXXXXX.XXXXXXXXXXXXXXXXXXXXXXXXXXX.XXXXXXXXXXXXXXXXXXXXXXXXXXX.ooooooooooooooooooooooooooo.ooooooooooooooooooooooooooo.             ",
"  .XXXXXXXXXXXXXXXXXXXXXXXXXX.XXXXXXXXXXXXXXXXXXXXXXXXXXX.XXXXXXXXXXXXXXXXXXXXXXXXXXXX.oooooooooooooooooooooooooo.ooooooooooooooooooooooooooo.              ",
"  .XXXXXXXXXXXXXXXXXXXXXXXXXX.XXXXXXXXXXXXXXXXXXXXXXXXXXX.XXXXXXXXXXXXXXXXXXXXXXXXXXX.ooooooooooooooooooooooooooo.ooooooooooooooooooooooooooo.              ",
" .XXXXXXXXXXXXXXXXXXXXXXXXXX.XXXXXXXXXXXXXXXXXXXXXXXXXXX.XXXXXXXXXXXXXXXXXXXXXXXXXXX.ooooooooooooooooooooooooooo.ooooooooooooooooooooooooooo.               ",
" ............................................................................................................................................               "
};
