/* XPM */
static char *b172a92d6a3141f496a308f6f9b05f17AZBo7GqNq4w4RUv8[] = {
/* columns rows colors chars-per-pixel */
"21 21 113 2 ",
"   c None",
".  c #750303",
"X  c #7C0405",
"o  c #7C0906",
"O  c #7D0609",
"+  c #7D090A",
"@  c #840404",
"#  c #8B0504",
"$  c #820906",
"%  c #8B0806",
"&  c #840608",
"*  c #8C0608",
"=  c #83090A",
"-  c #8B0A0A",
";  c #920402",
":  c #940404",
">  c #940505",
",  c #950407",
"<  c #9C0403",
"1  c #990304",
"2  c #9A0506",
"3  c #9F0505",
"4  c #930907",
"5  c #900A07",
"6  c #960807",
"7  c #9B0907",
"8  c #9F0608",
"9  c #930909",
"0  c #940809",
"q  c #980808",
"w  c #9A0809",
"e  c #9B0A0A",
"r  c #9D080A",
"t  c #9F0A0C",
"y  c #9D140E",
"u  c #9D1813",
"i  c #A10604",
"p  c #A20705",
"a  c #A00606",
"s  c #A10707",
"d  c #A20607",
"f  c #A40404",
"g  c #AB0404",
"h  c #A30906",
"j  c #A40907",
"k  c #AB0906",
"l  c #A20609",
"z  c #AB0608",
"x  c #A00A0B",
"c  c #A50A08",
"v  c #A30A0C",
"b  c #AB0B0A",
"n  c #B30404",
"m  c #BB0404",
"M  c #B30807",
"N  c #BD0906",
"B  c #B30609",
"V  c #BC0709",
"C  c #B30B0B",
"Z  c #BB0C0B",
"A  c #AB110E",
"S  c #B4100E",
"D  c #BF120F",
"F  c #B30F10",
"G  c #BB0E10",
"H  c #A81315",
"J  c #A31917",
"K  c #AD1B16",
"L  c #A51A19",
"P  c #B31211",
"I  c #BB1111",
"U  c #B61B16",
"Y  c #B6211F",
"T  c #BC231D",
"R  c #AB2A24",
"E  c #C40404",
"W  c #CC0404",
"Q  c #C20805",
"!  c #CB0806",
"~  c #C20709",
"^  c #CA0609",
"/  c #C40C0B",
"(  c #CC0B0B",
")  c #D30403",
"_  c #DB0304",
"`  c #D30A05",
"'  c #D60509",
"]  c #DC070B",
"[  c #D40C0C",
"{  c #DC0B0B",
"}  c #CB110E",
"|  c #DC110C",
" . c #C50F12",
".. c #D30E11",
"X. c #DD0D12",
"o. c #C41212",
"O. c #CB1212",
"+. c #D41112",
"@. c #DC1212",
"#. c #E20405",
"$. c #E30807",
"%. c #E20408",
"&. c #E40C0B",
"*. c #EA0D0D",
"=. c #E9110F",
"-. c #E40D12",
";. c #E61B17",
":. c #E41618",
">. c #C72321",
",. c #C62825",
"<. c #DC2827",
"1. c #D52728",
"2. c #C93332",
/* pixels */
"              X X . X X @ &               ",
"          * & X X + o $ % $ @ 0           ",
"      9 # @ X . . . . % * * * : l i       ",
"    e - * # @ $ = X + % - @ 0 3 3 v v     ",
"    7 % % @ @ @ X . o X # # t l f z P     ",
"  S i e 7 ; # @ @ $ $ u ; t 3 g B k Z n   ",
"  D g g h c U K J R J 2.P ,.g n N N n (   ",
"! ( m m V G >.T K Y H 1.O.<.Q ^ ! ! E { W ",
"W ` ) [ ^ E Z i C U C ^ ( +.! ' ) ) ) { ) ",
"%.%.X.-.X.( O.O.z z N ( @.( ;.&.| &.#.=.$.",
"-.] X.X...O.o.Z h 7 k Q @.[ :.*.&.$.#.=.$.",
"X.' W ^ ~ Z B B h 7 A g o.O.+.X.{ { _ &.) ",
"^ E m V n g c < Y Y Y h C I P C } E ! ! E ",
"Z B B b 3 : : # H J L 3 c H c P o.m / E N ",
"  c k x q # # & @ . $ : 8 w v I n n N n   ",
"  i i e 9 % = @ = o o 9 q q r b f g z n   ",
"    < 0 - * = + X o X # # % y 3 ; c f     ",
"    9 : 4 - * O O X X @ * - % 9 r : 1     ",
"      % * * & & & O X X = % : 9 ; :       ",
"          @ @ @ O O O & @ @ # @           ",
"              X X X X + @ X               "
};
