/* XPM */
static char *proto_vio_trans[] = {
/* columns rows colors chars-per-pixel */
"128 128 20 1 ",
"  c None",
". c #3C3FA2",
"X c #423CA8",
"o c #4E2CB8",
"O c #4F2EBB",
"+ c #4E2EBC",
"@ c #5B38B2",
"# c #5731B8",
"$ c #5832B8",
"% c #5833BC",
"& c #3C41A6",
"* c #3C42A9",
"= c #4342A5",
"- c #5D1DCA",
"; c #6116CF",
": c #6C1DCF",
"> c #6928C0",
", c #6D26CA",
"< c #6D27CA",
"1 c #7522D0",
/* pixels */
"..........&&................oo................&&............$%#11,###X...........&&................oo................&&.........",
"..........&&................oo................&&...............$$$...............&&................oo................&&.........",
"..........&&................oo................&&...............$$$...............&&................oo................&&.........",
"..........&&................oo................&&...............$$$...............&&................oo................&&.........",
"..........&&................oo................&&...............$$$...............&&................oo................&&.........",
"..........&&................oo................&&...............$$$...............&&................oo................&&.........",
"..........&&................oo................&&...............$$$...............&&................oo................&&.........",
"..........&&................oo................&&...............$$$...............&&................oo................&&.........",
"..........&&................oo................&&...............$$$...............&&................oo................&&.........",
"..........&&................oo................&&...............$$$...............&&................oo................&&.........",
"..........&&................oo................&&...............$$$...............&&................oo................&&.........",
"..........&&................oo................&&...............$$$...............&&................oo................&&.........",
"&&&&&&&&&&==&&&&&&&&&&&&&&&&oo**&&&&&&&&&&&&&&==&&&&&&&&&&&&&&&@$@&&&&&&&&&&&&&&&==&&&&&&&&&&&&&&&&OO&&&&&&&&&&&&&&&&==&&&&&&&&&",
"&&&&&&&&&&*=&&&&&&&&&&&&&&&&o%&*&&&&&&&&&&&&&&*=&&&&&&&&&&&&&&*$$@&&&&&&&&&&&&&&&*=&&&&&&&&&&&&&&&*oO&&&&&&&&&&&&&&&&&=&&&&&&&&&",
"..........&&................oo................&&...............$$$...............&&................oo................&&.........",
"..........&&................oo................&&...............$$$...............&&................oo&...............&&.........",
"..........&&................oo................&&...............$$$...............&&................oo................&&.........",
"..........&&................oo................&&...............$$$...............&&................oo................&&.........",
"..........&&................oo................&&...............$$$...............&&................oo................&&.........",
"..........&&................oo................&&...............$$$...............&&................oo................&&.........",
"..........&&................oo................&&...............$$$...............&&................oo................&&.........",
"..........&&................oo................&&...............$$$...............&&................oo................&&.........",
"..........&&................oo................&&...............$$$...............&&................oo................&&.........",
"..........&&................oo................&&...............$$$...............&&................oo................&&.........",
"..........&&................oo................&&...............$$$...............&&................oo................&&.........",
"..........&&................oo................&&...............$$$...............&&................oo................&&.........",
"..........&&................oo................&&...............$$$...............&&................oo................&&.........",
".........&&&................oo................&&...............$$$...............&&................oo................&&.........",
"..........&&................oo................&&...............$$$&...&..........&&................oo...............&&&.........",
"oooooooooooOoooooooooooooooo--ooooooooooooooooOOooooooooooooooo>>>oOoooooooooooooOOoooooooooooooooo--ooooooooooooooooOOooooooooo",
"oooooooooooooooooooooooooooo;                                                                       -oooooooooooooooooOooooooooo",
"........&&*&................o                                                                       o................&&.........",
"..........&&................o                                                                       o................&&.........",
"..........&&................o                                                                       o................&&.........",
"..........&&................o                                                                       o................&&.........",
"..........&&................o                                                                       o................&&.........",
"..........&&................o                                                                       o................&&.........",
"..........&&................o                                                                       o................&&.........",
"..........&&................o                                                                       o................&&.........",
"..........&&................o                                                                       o................&&.........",
"..........&&................o                                                                       o................&&.........",
"..........&&................o                                                                       o................&&.........",
"..........&&................o                                                                       o................&&.........",
"..........&&...............&o                                                                       o................&&.........",
"..........&&................o                                                                       o................&&.........",
"..........&&................o                                                                       o................&&.........",
"&&&&&&&&&&==&&&&&&&&&&&&&&&&O                                                                       O&&&&&&&&&&&&&&&&==&&&&&&&&&",
"&&&&&&&&&&&=&&&&&&&&&&&&&&&&o                                                                       O&&&&&&&&&&&&&&&&*=&&&&&&&&&",
"..........&&................o                                                                       o................&&.........",
"..........&&................o                                                                       o................&&.........",
"..........&&................o                                                                       o................&&.........",
"..........&&................o                                                                       o................&&.........",
"..........&&................o                                                                       o................&&.........",
"..........&&................o                                                                       o................&&.........",
"..........&&................o                                                                       o................&&.........",
"..........&&................o                                                                       o................&&.........",
"..........&&................o                                                                       o................&&.........",
"..........&&................o                                                                       o................&&.........",
"..........&&................o                                                                       o................&&.........",
"..........&&................o                                                                       o................&&.........",
"..........&&................o                                                                       o................&&.........",
"..........&&................o                                                                       o................&&.........",
"..........&&................o                                                                       o................&&.........",
"$$$$$$$$$$@@$$$$$$$$$$$$$$$$>                                                                       >$$$$$$$$$$$$$$$$@@$$$$$$$$$",
"$$$$$$$$$$$@$$$$$$$$$$$$$$$$:                                                                       >$$$$$$$$$$$$$$$$$@$$$$$$$$$",
"..........*&................o                                                                       o................&*.........",
"..........&&................o                                                                       o................&&.........",
"..........&&................o                                                                       o................&&.........",
"..........&&................o                                                                       o................&&.........",
"..........&&................o                                                                       o................&&.........",
"..........&&................o                                                                       o................&&.........",
"..........&&................o                                                                       o................&&.........",
"..........&&................o                                                                       o................&&.........",
"..........&&................o                                                                       o................&&.........",
"..........&&................o                                                                       o................&&.........",
"..........&&................o                                                                       o................&&.........",
"..........&&................o                                                                       o................&&.........",
"..........&&................o                                                                       o................&&.........",
"..........&&................o                                                                       o................&&.........",
"..........&&...............&o                                                                       o................&&.........",
"&&&&&&&&&&==&&&&&&&&&&&&&&&&O                                                                       O&&&&&&&&&&&&&&&&==&&&&&&&&&",
"&&&&&&&&&&&=&&&&&&&&&&&&&&&&o                                                                       O&&&&&&&&&&&&&&&&*=&&&&&&&&&",
"..........&&................o                                                                       o................&&.........",
"..........&&................o                                                                       o................&&.........",
"..........&&................o                                                                       o................&&.........",
"..........&&................o                                                                       o................&&.........",
"..........&&................o                                                                       o................&&.........",
"..........&&................o                                                                       o................&&.........",
"..........&&................o                                                                       o................&&.........",
"..........&&................o                                                                       o................&&.........",
"..........&&................o                                                                       o................&&.........",
"..........&&................o                                                                       o................&&.........",
"..........&&................o                                                                       o................&&.........",
"..........&&................o                                                                       o................&&.........",
"..........&&................o                                                                       o................&&.........",
"..........&&................o                                                                       o................&&.........",
"..........&&&...............o                                                                       o...............&&&.........",
"oooooooooooOoooooooooooooooo-                                                                       -ooooooooooooooooOOooooooooo",
"oooooooooooOoooooooooooooooo;-ooooo#ooooooooooooooooooooooooooo::>ooooooooooooooooOoooooooooooooooo;-oooooooooooooooooOooooooooo",
".........&*&................oo..............&&*&...............$$$..............&*&................oo................&&.........",
"..........&&................oo................&&...............$$$...............&&................oo................&&.........",
"..........&&................oo................&&...............$$$...............&&................oo................&&.........",
"..........&&................oo................&&...............$$$...............&&................oo................&&.........",
"..........&&................oo................&&...............$$$...............&&................oo................&&.........",
"..........&&................oo................&&...............$$$...............&&................oo................&&.........",
"..........&&................oo................&&...............$$$...............&&................oo................&&.........",
"..........&&................oo................&&...............$$$...............&&................oo................&&.........",
"..........&&................oo................&&...............$$$...............&&................oo................&&.........",
"..........&&................oo................&&...............$$$...............&&................oo................&&.........",
"..........&&................oo................&&...............$$$...............&&................oo................&&.........",
"..........&&................oo................&&...............$$$...............&&................oo................&&.........",
"..........&&................oo................&&...............$$$...............&&................oo................&&.........",
"..........&&................oo................&&...............$$$...............&&...............&oo................&&.........",
"..........&&................oo...............&&&...............$$$...............&&................oo................&&.........",
"&&&&&&&&&&==&&&&&&&&&&&&&&&&OO&&&&&&&&&&&&&&&&==&&&&&&&&&&&&&&*$@@&&&&&&&&&&&&&&&==&&&&&&&&&&&&&&&&OO&&&&&&&&&&&&&&&&==&&&&&&&&&",
"&&&&&&&&&&*=&&&&&&&&&&&&&&&&oO&&&&&&&&&&&&&&&&&=&&&&&&&&&&&&&&.$$@&&&&&&&&&&&&&&&*=&&&&&&&&&&&&&&&*oO&&&&&&&&&&&&&&&&*=&&&&&&&&&",
"..........&&................oo&...............&&...............$$$...............&&................oo................&&.........",
"..........&&................oo................&&...............$$$...............&&................oo................&&.........",
"..........&&................oo................&&...............$$$&..............&&................oo................&&.........",
"..........&&................oo................&&...............$$$...............&&................oo................&&.........",
"..........&&................oo................&&...............$$$...............&&................oo................&&.........",
"..........&&................oo................&&...............$$$...............&&................oo................&&.........",
"..........&&................oo................&&...............$$$...............&&................oo................&&.........",
"..........&&................oo................&&...............$$$...............&&................oo................&&.........",
"..........&&................oo................&&...............$$$...............&&................oo................&&.........",
"..........&&................oo................&&...............$$$...............&&................oo................&&.........",
"..........&&................oo................&&...............$$$...............&&................oo................&&.........",
"..........&&................oo................&&...........X###,,,#%$X...........&&................oo................&&........."
};
