/* XPM */
static char *_ffd81d5a2f04d43fda36e3e0c685775WP9Jdv0aKmR0CUc6[] = {
/* columns rows colors chars-per-pixel */
"128 128 27 1 ",
"  c #4D56B2",
". c #4D56B3",
"X c #4D57B3",
"o c #4D57B4",
"O c #4D58B5",
"+ c #4D59B8",
"@ c #5453B7",
"# c #5559B4",
"$ c #5554B8",
"% c #723BD4",
"& c #7636D8",
"* c #6246C5",
"= c #6348C7",
"- c #6B4BC5",
"; c #6C4CC5",
": c #6248C8",
"> c #6C4DC8",
", c #7E44CC",
"< c #6F51C0",
"1 c #813CD8",
"2 c #8648CC",
"3 c #8243D4",
"4 c #8244D4",
"5 c #8A41D8",
"6 c #8B41D8",
"7 c #8A41D9",
"8 c #FFFFFF",
/* pixels */
"88888888888888888888888888888888888888888888888888888888888888888888888888888888888888888888888888888888888888888888888888888888",
"8              OO              **              OO       o88    ;;    88$       OO              **              OO              8",
"8              OO              **              OO        o88---33---88$        OO              **              OO              8",
"8              OO              **              OO         o8888888888$         OO              **              OO              8",
"8              OO              **              OO           ---74---@          OO              **              OO              8",
"8              OO              **              OO              ;;              OO              **              OO              8",
"8              OO              **              OO              ;;              OO              **              OO              8",
"8              OO              **              OO              ;;              OO              **              OO              8",
"8              OO              **              OO              ;;              OO              **              OO              8",
"8              OO              **              OO              ;;              OO              **              OO              8",
"8              OO              **              OO              ;;              OO              **              OO              8",
"8              OO              **              OO              ;;              OO              **              OO              8",
"8              OO              **              OO              ;;              OO              **              OO              8",
"8              OO              **              OO              ;;              OO              **              OO              8",
"8              OO              **              OO              ;;              OO              **              OO              8",
"8OOOOOOOOOOOOOO##OOOOOOOOOOOOOO==OOOOOOOOOOOOOO##OOOOOOOOOOOOOO<<OOOOOOOOOOOOOO##OOOOOOOOOOOOOO==OOOOOOOOOOOOOO##OOOOOOOOOOOOOO8",
"8OOOOOOOOOOOOOO+#OOOOOOOOOOOOOO:=OOOOOOOOOOOOOO+#OOOOOOOOOOOOOO><OOOOOOOOOOOOOO+#OOOOOOOOOOOOOO:=OOOOOOOOOOOOOO+#OOOOOOOOOOOOOO8",
"8              OO              **              OO              ;;              OO              **              OO              8",
"8              OO              **              OO              ;;              OO              **              OO              8",
"8              OO              **              OO              ;;              OO              **              OO              8",
"8              OO              **              OO              ;;              OO              **              OO              8",
"8              OO              **              OO              ;;              OO              **              OO              8",
"8              OO              **              OO              ;;              OO              **              OO              8",
"8              OO              **              OO              ;;              OO              **              OO              8",
"8              OO              **              OO              ;;              OO              **              OO              8",
"8              OO              **              OO              ;;              OO              **              OO              8",
"8              OO              **              OO              ;;              OO              **              OO              8",
"8              OO              **              OO              ;;              OO              **              OO              8",
"8              OO              **              OO              ;;              OO              **              OO              8",
"8              OO              **              OO              ;;              OO              **              OO              8",
"8              OO              **              OO              ;;              OO              **              OO              8",
"8**************==**************%%**************==**************,,**************==**************%%**************==**************8",
"8**************:=**************&%**************:=**************1,**************:=**************&%**************:=**************8",
"8              OO              **              OO              ;;              OO              **              OO              8",
"8              OO              **              OO              ;;              OO              **              OO              8",
"8              OO              **              OO              ;;              OO              **              OO              8",
"8              OO              **              OO              ;;              OO              **              OO              8",
"8              OO              **              OO              ;;              OO              **              OO              8",
"8              OO              **              OO              ;;              OO              **              OO              8",
"8              OO              **              OO              ;;              OO              **              OO              8",
"8              OO              **              OO              ;;              OO              **              OO              8",
"8              OO              **              OO              ;;              OO              **              OO              8",
"8              OO              **              OO              ;;              OO              **              OO              8",
"8              OO              **              OO              ;;              OO              **              OO              8",
"8              OO              **              OO              ;;              OO              **              OO              8",
"8              OO              **              OO              ;;              OO              **              OO              8",
"8              OO              **              OO              ;;              OO              **              OO              8",
"8OOOOOOOOOOOOOO##OOOOOOOOOOOOOO==OOOOOOOOOOOOOO##OOOOOOOOOOOOOO<<OOOOOOOOOOOOOO##OOOOOOOOOOOOOO==OOOOOOOOOOOOOO##OOOOOOOOOOOOOO8",
"8OOOOOOOOOOOOOO+#OOOOOOOOOOOOOO:=OOOOOOOOOOOOOO+#OOOOOOOOOOOOOO><OOOOOOOOOOOOOO+#OOOOOOOOOOOOOO:=OOOOOOOOOOOOOO+#OOOOOOOOOOOOOO8",
"8              OO              **              OO              ;;              OO              **              OO              8",
"8              OO              **              OO              ;;              OO              **              OO              8",
"8              OO              **              OO              ;;              OO              **              OO              8",
"8              OO              **              OO              ;;              OO              **              OO              8",
"8              OO              **              OO              ;;              OO              **              OO              8",
"8              OO              **              OO              ;;              OO              **              OO              8",
"8              OO              **              OO              ;;              OO              **              OO              8",
"8$             OO              **              OO              ;;              OO              **              OO             $8",
"88$            OO              **              OO              ;;              OO              **              OO            $88",
"888$           OO              **              OO              ;;              OO              **              OO           $888",
"8 88@          OO              **              OO              ;;              OO              **              OO          @88 8",
"8 -8-          OO              **              OO              ;;              OO              **              OO          -8- 8",
"8 -8-          OO              **              OO              ;;              OO              **              OO          -8- 8",
"8 -8-          OO              **              OO              ;;              OO              **              OO          -8- 8",
"8;384;;;;;;;;;;<<;;;;;;;;;;;;;;,,;;;;;;;;;;;;;;<<;;;;;;;;;;;;;;22;;;;;;;;;;;;;;<<;;;;;;;;;;;;;;,,;;;;;;;;;;;;;;<<;;;;;;;;;;384;8",
"8;784;;;;;;;;;;><;;;;;;;;;;;;;;1,;;;;;;;;;;;;;;;<;;;;;;;;;;;;;;72;;;;;;;;;;;;;;><;;;;;;;;;;;;;;1,;;;;;;;;;;;;;;><;;;;;;;;;;784;8",
"8 -8-          OO              **              OO              ;;              OO              **              OO          -8- 8",
"8 -8-          OO              **              OO              ;;              OO              **              OO          -8- 8",
"8 -8-          OO              **              OO              ;;              OO              **              OO          -8- 8",
"8 88$          OO              **              OO              ;;              OO              **              OO           88 8",
"888$           OO              **              OO              ;;              OO              **              OO            888",
"88$            OO              **              OO              ;;              OO              **              OO            o88",
"8$             OO              **              OO              ;;              OO              **              OO             o8",
"8              OO              **              OO              ;;              OO              **              OO              8",
"8              OO              **              OO              ;;              OO              **              OO              8",
"8              OO              **              OO              ;;              OO              **              OO              8",
"8              OO              **              OO              ;;              OO              **              OO              8",
"8              OO              **              OO              ;;              OO              **              OO              8",
"8              OO              **              OO              ;;              OO              **              OO              8",
"8              OO              **              OO              ;;              OO              **              OO              8",
"8OOOOOOOOOOOOOO##OOOOOOOOOOOOOO==OOOOOOOOOOOOOO##OOOOOOOOOOOOOO<<OOOOOOOOOOOOOO##OOOOOOOOOOOOOO==OOOOOOOOOOOOOO##OOOOOOOOOOOOOO8",
"8OOOOOOOOOOOOOO+#OOOOOOOOOOOOOO:=OOOOOOOOOOOOOO+#OOOOOOOOOOOOOO><OOOOOOOOOOOOOO+#OOOOOOOOOOOOOO:=OOOOOOOOOOOOOO+#OOOOOOOOOOOOOO8",
"8              OO              **              OO              ;;              OO              **              OO              8",
"8              OO              **              OO              ;;              OO              **              OO              8",
"8              OO              **              OO              ;;              OO              **              OO              8",
"8              OO              **              OO              ;;              OO              **              OO              8",
"8              OO              **              OO              ;;              OO              **              OO              8",
"8              OO              **              OO              ;;              OO              **              OO              8",
"8              OO              **              OO              ;;              OO              **              OO              8",
"8              OO              **              OO              ;;              OO              **              OO              8",
"8              OO              **              OO              ;;              OO              **              OO              8",
"8              OO              **              OO              ;;              OO              **              OO              8",
"8              OO              **              OO              ;;              OO              **              OO              8",
"8              OO              **              OO              ;;              OO              **              OO              8",
"8              OO              **              OO              ;;              OO              **              OO              8",
"8              OO              **              OO              ;;              OO              **              OO              8",
"8**************==**************%%**************==**************,,**************==**************%%**************==**************8",
"8**************:=**************&%**************:=**************1,**************:=**************&%**************:=**************8",
"8              OO              **              OO              ;;              OO              **              OO              8",
"8              OO              **              OO              ;;              OO              **              OO              8",
"8              OO              **              OO              ;;              OO              **              OO              8",
"8              OO              **              OO              ;;              OO              **              OO              8",
"8              OO              **              OO              ;;              OO              **              OO              8",
"8              OO              **              OO              ;;              OO              **              OO              8",
"8              OO              **              OO              ;;              OO              **              OO              8",
"8              OO              **              OO              ;;              OO              **              OO              8",
"8              OO              **              OO              ;;              OO              **              OO              8",
"8              OO              **              OO              ;;              OO              **              OO              8",
"8              OO              **              OO              ;;              OO              **              OO              8",
"8              OO              **              OO              ;;              OO              **              OO              8",
"8              OO              **              OO              ;;              OO              **              OO              8",
"8              OO              **              OO              ;;              OO              **              OO              8",
"8OOOOOOOOOOOOOO##OOOOOOOOOOOOOO==OOOOOOOOOOOOOO##OOOOOOOOOOOOOO<<OOOOOOOOOOOOOO##OOOOOOOOOOOOOO==OOOOOOOOOOOOOO##OOOOOOOOOOOOOO8",
"8OOOOOOOOOOOOOO+#OOOOOOOOOOOOOO:=OOOOOOOOOOOOOO+#OOOOOOOOOOOOOO><OOOOOOOOOOOOOO+#OOOOOOOOOOOOOO:=OOOOOOOOOOOOOO+#OOOOOOOOOOOOOO8",
"8              OO              **              OO              ;;              OO              **              OO              8",
"8              OO              **              OO              ;;              OO              **              OO              8",
"8              OO              **              OO              ;;              OO              **              OO              8",
"8              OO              **              OO              ;;              OO              **              OO              8",
"8              OO              **              OO              ;;              OO              **              OO              8",
"8              OO              **              OO              ;;              OO              **              OO              8",
"8              OO              **              OO              ;;              OO              **              OO              8",
"8              OO              **              OO              ;;              OO              **              OO              8",
"8              OO              **              OO              ;;              OO              **              OO              8",
"8              OO              **              OO              ;;              OO              **              OO              8",
"8              OO              **              OO          @---33---@          OO              **              OO              8",
"8              OO              **              OO         $8888888888$         OO              **              OO              8",
"8              OO              **              OO        $88---74---88$        OO              **              OO              8",
"8              OO              **              OO       $88    ;;    88$       OO              **              OO              8",
"88888888888888888888888888888888888888888888888888888888888888888888888888888888888888888888888888888888888888888888888888888888"
};
