/* XPM */
static char *_82ffa861bb14fe1bd49c489bd9416e84rlV4wghxAhx5XKf[] = {
/* columns rows colors chars-per-pixel */
"128 128 26 1 ",
"  c #36FB1A",
". c #00FF25",
"X c #01FF27",
"o c #02FF29",
"O c #03FF2B",
"+ c #0AFF29",
"@ c #0BFF2E",
"# c #06FF31",
"$ c #0DFF30",
"% c #3DED2C",
"& c #3EED2C",
"* c #3EEC2E",
"= c #22FF2A",
"- c #22FF2C",
"; c #35EF39",
": c #6BFF0E",
"> c #72FD13",
", c #73FE13",
"< c #72FF16",
"1 c #7AFF12",
"2 c #42EF3D",
"3 c #41F03B",
"4 c #4FF14F",
"5 c #77FF4C",
"6 c #75F950",
"7 c white",
/* pixels */
"77777777777777777777777777777777777777777777777777777777777777777777777777777777777777777777777777777777777777777777777777777777",
"7..............OO..............::..............OO........77....,,....77$.......OO..............::..............OO..............7",
"7..............OO..............::..............OO........O77>>>22>,>77@........OO..............::..............OO..............7",
"7..............OO..............::..............OO.........O7777777777@.........OO..............::..............OO..............7",
"7..............OO..............::..............OO...........>>>*2,>>@..........OO..............::..............OO..............7",
"7..............OO..............::..............OO..............,,..............OO..............::..............OO..............7",
"7..............OO..............::..............OO..............,,..............OO..............::..............OO..............7",
"7..............OO..............::..............OO..............,,..............OO..............::..............OO..............7",
"7..............OO..............::..............OO..............,,..............OO..............::..............OO..............7",
"7..............OO..............::..............OO..............,,..............OO..............::..............OO..............7",
"7..............OO..............::..............OO..............,,..............OO..............::..............OO..............7",
"7..............OO..............::..............OO..............,,..............OO..............::..............OO..............7",
"7..............OO..............::..............OO..............,,..............OO..............::..............OO..............7",
"7..............OO..............::..............OO..............,,..............OO..............::..............OO..............7",
"7..............OO..............::..............OO..............,,..............OO..............::..............OO..............7",
"7OOOOOOOOOOOOOO++OOOOOOOOOOOOOO==OOOOOOOOOOOOOO++OOOOOOOOOOOOOO11OOOOOOOOOOOOOO++OOOOOOOOOOOOOO==OOOOOOOOOOOOOO++OOOOOOOOOOOOOO7",
"7OOOOOOOOOOOOOO#+OOOOOOOOOOOOOO-=OOOOOOOOOOOOOO#+OOOOOOOOOOOOOO<1OOOOOOOOOOOOOO#+OOOOOOOOOOOOOO-=OOOOOOOOOOOOOO#+OOOOOOOOOOOOOO7",
"7..............OO..............::..............OO..............,,..............OO..............::..............OO..............7",
"7..............OO..............::..............OO..............,,..............OO..............::..............OO..............7",
"7..............OO..............::..............OO..............,,..............OO..............::..............OO..............7",
"7..............OO..............::..............OO..............,,..............OO..............::..............OO..............7",
"7..............OO..............::..............OO..............,,..............OO..............::..............OO..............7",
"7..............OO..............::..............OO..............,,..............OO..............::..............OO..............7",
"7..............OO..............::..............OO..............,,..............OO..............::..............OO..............7",
"7..............OO..............::..............OO..............,,..............OO..............::..............OO..............7",
"7..............OO..............::..............OO..............,,..............OO..............::..............OO..............7",
"7..............OO..............::..............OO..............,,..............OO..............::..............OO..............7",
"7..............OO..............::..............OO..............,,..............OO..............::..............OO..............7",
"7..............OO..............::..............OO..............,,..............OO..............::..............OO..............7",
"7..............OO..............::..............OO..............,,..............OO..............::..............OO..............7",
"7..............OO..............::..............OO..............,,..............OO..............::..............OO..............7",
"7::::::::::::::==::::::::::::::66::::::::::::::==::::::::::::::55::::::::::::::==::::::::::::::66::::::::::::::==::::::::::::::7",
"7::::::::::::::-=::::::::::::::;6::::::::::::::-=::::::::::::::45::::::::::::::-=::::::::::::::;6::::::::::::::-=::::::::::::::7",
"7..............OO..............::..............OO..............,,..............OO..............::..............OO..............7",
"7..............OO..............::..............OO..............,,..............OO..............::..............OO..............7",
"7..............OO..............::..............OO..............,,..............OO..............::..............OO..............7",
"7..............OO..............::..............OO..............,,..............OO..............::..............OO..............7",
"7..............OO..............::..............OO..............,,..............OO..............::..............OO..............7",
"7..............OO..............::..............OO..............,,..............OO..............::..............OO..............7",
"7..............OO..............::..............OO..............,,..............OO..............::..............OO..............7",
"7..............OO..............::..............OO..............,,..............OO..............::..............OO..............7",
"7..............OO..............::..............OO..............,,..............OO..............::..............OO..............7",
"7..............OO..............::..............OO..............,,..............OO..............::..............OO..............7",
"7..............OO..............::..............OO..............,,..............OO..............::..............OO..............7",
"7..............OO..............::..............OO..............,,..............OO..............::..............OO..............7",
"7..............OO..............::..............OO..............,,..............OO..............::..............OO..............7",
"7..............OO..............::..............OO..............,,..............OO..............::..............OO..............7",
"7OOOOOOOOOOOOOO++OOOOOOOOOOOOOO==OOOOOOOOOOOOOO++OOOOOOOOOOOOOO11OOOOOOOOOOOOOO++OOOOOOOOOOOOOO==OOOOOOOOOOOOOO++OOOOOOOOOOOOOO7",
"7OOOOOOOOOOOOOO#+OOOOOOOOOOOOOO==OOOOOOOOOOOOOO#+OOOOOOOOOOOOOO<1OOOOOOOOOOOOOO#+OOOOOOOOOOOOOO==OOOOOOOOOOOOOO#+OOOOOOOOOOOOOO7",
"7..............OO..............::..............OO..............,,..............OO..............::..............OO..............7",
"7..............OO..............::..............OO..............,,..............OO..............::..............OO..............7",
"7..............OO..............::..............OO..............,,..............OO..............::..............OO..............7",
"7..............OO..............::..............OO..............,,..............OO..............::..............OO..............7",
"7..............OO..............::..............OO..............,,..............OO..............::..............OO..............7",
"7..............OO..............::..............OO..............,,..............OO..............::..............OO..............7",
"7..............OO..............::..............OO..............,,..............OO..............::..............OO..............7",
"7$.............OO..............::..............OO..............,,..............OO..............::..............OO.............$7",
"77$............OO..............::..............OO..............,,..............OO..............::..............OO............$77",
"777$...........OO..............::..............OO..............,,..............OO..............::..............OO...........$777",
"7.77@..........OO..............::..............OO..............,,..............OO..............::..............OO..........@77.7",
"7.,7,..........OO..............::..............OO..............,,..............OO..............::..............OO..........>7>.7",
"7.,7>..........OO..............::..............OO..............,,..............OO..............::..............OO..........>7>.7",
"7.,7>..........OO..............::..............OO..............,,..............OO..............::..............OO..........,7>.7",
"7,272,,,,,,,,,,11,,,,,,,,,,,,,,55,,,,,,,,,,,,,,11,,,,,,,,,,,,,,  ,,,,,,,,,,,,,,11,,,,,,,,,,,,,,55,,,,,,,,,,,,,,11,,,,,,,,,,272,7",
"7,%72,,,,,,,,,,<1,,,,,,,,,,,,><45,,,,,,,,,,,,,,<1,,,,,,,,,,,>>>3 ,,,,,,,,,,,,,,<1,,,,,,,,,,,,,,45,,,,,,,,,,,,,,<1,,,,,,,,,,*72,7",
"7.>7>..........OO..............::..............O...............,,..............OO..............::..............OO..........>7,.7",
"7.>7>..........OO..............::..............O+..............,,..............OO..............::..............OO..........>7>.7",
"7.>7>..........OO..............::..............O...............,,..............OO..............::..............OO..........>7>.7",
"7.77@..........OO..............::..............OO..............,,..............OO..............::..............OO...........77.7",
"777@...........OO..............::..............OO..............,,..............OO..............::..............OO...........O777",
"77$............OO..............::..............OO..............,,..............OO..............::..............OO............O77",
"7$.............OO..............::..............OO..............,,..............OO..............::..............OO..............7",
"7..............OO..............::..............OO..............,,..............OO..............::..............OO..............7",
"7..............OO..............::..............OO..............,,..............OO..............::..............OO..............7",
"7..............OO..............::..............OO..............,,..............OO..............::..............OO..............7",
"7..............OO..............::..............OO..............,,..............OO..............::..............OO..............7",
"7..............OO..............::..............OO..............,,..............OO..............::..............OO..............7",
"7..............OO..............::..............OO..............,,..............OO..............::..............OO..............7",
"7..............OO..............::..............OO..............,,..............OO..............::..............OO..............7",
"7OOOOOOOOOOOOOO++OOOOOOOOOOOOOO==OOOOOOOOOOOOOO++OOOOOOOOOOOOOO11OOOOOOOOOOOOOO++OOOOOOOOOOOOOO==OOOOOOOOOOOOOO++OOOOOOOOOOOOOO7",
"7OOOOOOOOOOOOOO#+OOOOOOOOOOOOOO==OOOOOOOOOOOOOO#+OOOOOOOOOOOOOO<1OOOOOOOOOOOOOO#+OOOOOOOOOOOOOO-=OOOOOOOOOOOOOO#+OOOOOOOOOOOOOO7",
"7..............OO..............::..............OO..............,,..............OO..............::..............OO..............7",
"7..............OO..............::..............OO..............,,..............OO..............::..............OO..............7",
"7..............OO..............::..............OO..............,,..............OO..............::..............OO..............7",
"7..............OO..............::..............OO..............,,..............OO..............::..............OO..............7",
"7..............OO..............::..............OO..............,,..............OO..............::..............OO..............7",
"7..............OO..............::..............OO..............,,..............OO..............::..............OO..............7",
"7..............OO..............::..............OO..............,,..............OO..............::..............OO..............7",
"7..............OO..............::..............OO..............,,..............OO..............::..............OO..............7",
"7..............OO..............::..............OO..............,,..............OO..............::..............OO..............7",
"7..............OO..............::..............OO..............,,..............OO..............::..............OO..............7",
"7..............OO..............::..............OO..............,,..............OO..............::..............OO..............7",
"7..............OO..............::..............OO..............,,..............OO..............::..............OO..............7",
"7..............OO..............::..............OO..............,,..............OO..............::..............OO..............7",
"7..............OO..............::..............OO..............,,..............OO..............::..............OO..............7",
"7::::::::::::::==::::::::::::::66::::::::::::::==::::::::::::::55::::::::::::::==::::::::::::::66::::::::::::::==::::::::::::::7",
"7::::::::::::::-=::::::::::::::;5::::::::::::::--::::::::::::::45::::::::::::::-=::::::::::::::;6::::::::::::::-=::::::::::::::7",
"7..............OO..............::..............OO..............,,..............OO..............::..............OO..............7",
"7..............OO..............::..............OO..............,,..............OO..............::..............OO..............7",
"7..............OO..............::..............OO..............,,..............OO..............::..............OO..............7",
"7..............OO..............::..............OO..............,,..............OO..............::..............OO..............7",
"7..............OO..............::..............OO..............,,..............OO..............::..............OO..............7",
"7..............OO..............::..............OO..............,,..............OO..............::..............OO..............7",
"7..............OO..............::..............OO..............,,..............OO..............::..............OO..............7",
"7..............OO..............::..............OO..............,,..............OO..............::..............OO..............7",
"7..............OO..............::..............OO..............,,..............OO..............::..............OO..............7",
"7..............OO..............::..............OO..............,,..............OO..............::..............OO..............7",
"7..............OO..............::..............OO..............>,..............OO..............::..............OO..............7",
"7..............OO..............::..............OO..............>,..............OO..............::..............OO..............7",
"7..............OO..............::..............OO..............>,..............OO..............::..............OO..............7",
"7..............OO..............::..............OO..............>,..............OO..............::..............OO..............7",
"7OOOOOOOOOOOOOO++OOOOOOOOOOOOOO==OOOOOOOOOOOOOO++OOOOOOOOOOOOOO11OOOOOOOOOOOOOO++OOOOOOOOOOOOOO==OOOOOOOOOOOOOO++OOOOOOOOOOOOOO7",
"7OOOOOOOOOOOOOO#+OOOOOOOOOOOOOO-=OOOOOOOOOOOOOO#+OOOOOOOOOOOOOO<1OOOOOOOOOOOOOO#+OOOOOOOOOOOOOO-=OOOOOOOOOOOOOO#+OOOOOOOOOOOOOO7",
"7..............OO..............::..............OO..............,,..............OO..............::..............OO..............7",
"7..............OO..............::..............OO..............,,..............OO..............::..............OO..............7",
"7..............OO..............::..............OO..............,,..............OO..............::..............OO..............7",
"7..............OO..............::..............OO..............,,..............OO..............::..............OO..............7",
"7..............OO..............::..............OO..............,,..............OO..............::..............OO..............7",
"7..............OO..............::..............OO..............,,..............OO..............::..............OO..............7",
"7..............OO..............::..............OO..............,,..............OO..............::..............OO..............7",
"7..............OO..............::..............OO..............,,..............OO..............::..............OO..............7",
"7..............OO..............::..............OO..............,,..............OO..............::..............OO..............7",
"7..............OO..............::..............OO..............,,..............OO..............::..............OO..............7",
"7..............OO..............::..............OO..........@>>>22>>>@..........OO..............::..............OO..............7",
"7..............OO..............::..............OO.........$7777777777$.........OO..............::..............OO..............7",
"7..............OO..............::..............OO........$77>>>*2,>>77$........OO..............::..............OO..............7",
"7..............OO..............::..............OO.......@77....,,....77$.......OO..............::..............OO..............7",
"77777777777777777777777777777777777777777777777777777777777777777777777777777777777777777777777777777777777777777777777777777777"
};
