/* XPM */
static char *_75a4142f881488080fa0fafcb9fa9918CoHg13XlobJmUTh[] = {
/* columns rows colors chars-per-pixel */
"128 128 26 1 ",
"  c None",
". c #4D56B2",
"X c #4D56B3",
"o c #4D57B3",
"O c #4D57B4",
"+ c #4D58B5",
"@ c #4D59B8",
"# c #5453B7",
"$ c #5559B4",
"% c #5554B8",
"& c #723BD4",
"* c #7636D8",
"= c #6246C5",
"- c #6348C7",
"; c #6B4BC5",
": c #6C4CC5",
"> c #6248C8",
", c #6C4DC8",
"< c #7E44CC",
"1 c #6F51C0",
"2 c #813CD8",
"3 c #8243D4",
"4 c #8244D4",
"5 c #8A41D8",
"6 c #8A41D9",
"7 c #FFFFFF",
/* pixels */
"77777777777777777777777777777777777777777777777777777777777777777777777777777777777777777777777777777777777777777777777777777777",
"7..............++..............==..............++.......O77....::....77%.......++..............==..............++..............7",
"7..............++..............==..............++........O77;;;33;;;77%........++..............==..............++..............7",
"7..............++..............==..............++.........O7777777777%.........++..............==..............++..............7",
"7..............++..............==..............++...........;;;64;;;#..........++..............==..............++..............7",
"7..............++..............==..............++..............::..............++..............==..............++..............7",
"7..............++..............==..............++..............::..............++..............==..............++..............7",
"7..............++..............==..............++..............::..............++..............==..............++..............7",
"7..............++..............==..............++..............::..............++..............==..............++..............7",
"7..............++..............==..............++..............::..............++..............==..............++..............7",
"7..............++..............==..............++..............::..............++..............==..............++..............7",
"7..............++..............==..............++..............::..............++..............==..............++..............7",
"7..............++..............==..............++..............::..............++..............==..............++..............7",
"7..............++..............==..............++..............::..............++..............==..............++..............7",
"7..............++..............==..............++..............::..............++..............==..............++..............7",
"7++++++++++++++$$++++++++++++++--++++++++++++++$$++++++++++++++11++++++++++++++$$++++++++++++++--++++++++++++++$$++++++++++++++7",
"7++++++++++++++@$++++++++++++++>-++++++++++++++@$++++++++++++++,1++++++++++++++@$++++++++++++++>-++++++++++++++@$++++++++++++++7",
"7..............++..............==..............++..............::..............++..............==..............++..............7",
"7..............++..............==..............++..............::..............++..............==..............++..............7",
"7..............++..............==..............++..............::..............++..............==..............++..............7",
"7..............++..............==..............++..............::..............++..............==..............++..............7",
"7..............++..............==..............++..............::..............++..............==..............++..............7",
"7..............++..............==..............++..............::..............++..............==..............++..............7",
"7..............++..............==..............++..............::..............++..............==..............++..............7",
"7..............++..............==..............++..............::..............++..............==..............++..............7",
"7..............++..............==..............++..............::..............++..............==..............++..............7",
"7..............++..............==..............++..............::..............++..............==..............++..............7",
"7..............++..............==..............++..............::..............++..............==..............++..............7",
"7..............++..............==..............++..............::..............++..............==..............++..............7",
"7..............++..............==..............++..............::..............++..............==..............++..............7",
"7..............++..............==..............++..............::..............++..............==..............++..............7",
"7==============--==============&&==============--==============<<==============--==============&&==============--==============7",
"7==============>-==============*                                                                &==============>-==============7",
"7..............++..............=                                                                =..............++..............7",
"7..............++..............=                                                                =..............++..............7",
"7..............++..............=                                                                =..............++..............7",
"7..............++..............=                                                                =..............++..............7",
"7..............++..............=                                                                =..............++..............7",
"7..............++..............=                                                                =..............++..............7",
"7..............++..............=                                                                =..............++..............7",
"7..............++..............=                                                                =..............++..............7",
"7..............++..............=                                                                =..............++..............7",
"7..............++..............=                                                                =..............++..............7",
"7..............++..............=                                                                =..............++..............7",
"7..............++..............=                                                                =..............++..............7",
"7..............++..............=                                                                =..............++..............7",
"7..............++..............=                                                                =..............++..............7",
"7++++++++++++++$$++++++++++++++-                                                                -++++++++++++++$$++++++++++++++7",
"7++++++++++++++@$++++++++++++++>                                                                -++++++++++++++@$++++++++++++++7",
"7..............++..............=                                                                =..............++..............7",
"7..............++..............=                                                                =..............++..............7",
"7..............++..............=                                                                =..............++..............7",
"7..............++..............=                                                                =..............++..............7",
"7..............++..............=                                                                =..............++..............7",
"7..............++..............=                                                                =..............++..............7",
"7..............++..............=                                                                =..............++..............7",
"7%.............++..............=                                                                =..............++.............%7",
"77%............++..............=                                                                =..............++............%77",
"777%...........++..............=                                                                =..............++...........%777",
"7.77#..........++..............=                                                                =..............++..........#77.7",
"7.;7;..........++..............=                                                                =..............++..........;7;.7",
"7.;7;..........++..............=                                                                =..............++..........;7;.7",
"7.;7;..........++..............=                                                                =..............++..........;7;.7",
"7:374::::::::::11::::::::::::::<                                                                <::::::::::::::11::::::::::374:7",
"7:674::::::::::,1::::::::::::::2                                                                <::::::::::::::,1::::::::::674:7",
"7.;7;..........++..............=                                                                =..............++..........;7;.7",
"7.;7;..........++..............=                                                                =..............++..........;7;.7",
"7.;7;..........++..............=                                                                =..............++..........;7;.7",
"7.77#..........++..............=                                                                =..............++...........77.7",
"777%...........++..............=                                                                =..............++............777",
"77%............++..............=                                                                =..............++............O77",
"7%.............++..............=                                                                =..............++.............O7",
"7..............++..............=                                                                =..............++..............7",
"7..............++..............=                                                                =..............++..............7",
"7..............++..............=                                                                =..............++..............7",
"7..............++..............=                                                                =..............++..............7",
"7..............++..............=                                                                =..............++..............7",
"7..............++..............=                                                                =..............++..............7",
"7..............++..............=                                                                =..............++..............7",
"7++++++++++++++$$++++++++++++++-                                                                -++++++++++++++$$++++++++++++++7",
"7+++++++++++++++$++++++++++++++>                                                                -++++++++++++++@$++++++++++++++7",
"7..............++..............=                                                                =..............++..............7",
"7..............++..............=                                                                =..............++..............7",
"7..............++..............=                                                                =..............++..............7",
"7..............++..............=                                                                =..............++..............7",
"7..............++..............=                                                                =..............++..............7",
"7..............++..............=                                                                =..............++..............7",
"7..............++..............=                                                                =..............++..............7",
"7..............++..............=                                                                =..............++..............7",
"7..............++..............=                                                                =..............++..............7",
"7..............++..............=                                                                =..............++..............7",
"7..............++..............=                                                                =..............++..............7",
"7..............++..............=                                                                =..............++..............7",
"7..............++..............=                                                                =..............++..............7",
"7..............++..............=                                                                =..............++..............7",
"7==============>-==============&                                                                &==============--==============7",
"7==============>-==============*&==============>-==============2<==============>-==============*&==============>-==============7",
"7..............++..............==..............++..............::..............++..............==..............++..............7",
"7..............++..............==..............++..............::..............++..............==..............++..............7",
"7..............++..............==..............++..............::..............++..............==..............++..............7",
"7..............++..............==..............++..............::..............++..............==..............++..............7",
"7..............++..............==..............++..............::..............++..............==..............++..............7",
"7..............++..............==..............++..............::..............++..............==..............++..............7",
"7..............++..............==..............++..............::..............++..............==..............++..............7",
"7..............++..............==..............++..............::..............++..............==..............++..............7",
"7..............++..............==..............++..............::..............++..............==..............++..............7",
"7..............++..............==..............++..............::..............++..............==..............++..............7",
"7..............++..............==..............++..............::..............++..............==..............++..............7",
"7..............++..............==..............++..............::..............++..............==..............++..............7",
"7..............++..............==..............++..............::..............++..............==..............++..............7",
"7..............++..............==..............++..............::..............++..............==..............++..............7",
"7++++++++++++++$$++++++++++++++--++++++++++++++$$++++++++++++++11++++++++++++++$$++++++++++++++--++++++++++++++$$++++++++++++++7",
"7++++++++++++++@$++++++++++++++>-++++++++++++++@$++++++++++++++,1++++++++++++++@$++++++++++++++>-++++++++++++++@$++++++++++++++7",
"7..............++..............==..............++..............::..............++..............==..............++..............7",
"7..............++..............==..............++..............::..............++..............==..............++..............7",
"7..............++..............==..............++..............::..............++..............==..............++..............7",
"7..............++..............==..............++..............::..............++..............==..............++..............7",
"7..............++..............==..............++..............::..............++..............==..............++..............7",
"7..............++..............==..............++..............::..............++..............==..............++..............7",
"7..............++..............==..............++..............::..............++..............==..............++..............7",
"7..............++..............==..............++..............::..............++..............==..............++..............7",
"7..............++..............==..............++..............::..............++..............==..............++..............7",
"7..............++..............==..............++..............::..............++..............==..............++..............7",
"7..............++..............==..............++..........#;;;33;;;#..........++..............==..............++..............7",
"7..............++..............==..............++.........%7777777777%.........++..............==..............++..............7",
"7..............++..............==..............++........%77;;;64;;;77%........++..............==..............++..............7",
"7..............++..............==..............++.......%77....::....77%.......++..............==..............++..............7",
"77777777777777777777777777777777777777777777777777777777777777777777777777777777777777777777777777777777777777777777777777777777"
};
