/* XPM */
static char *_85851ace32f4d0ffe446c667b2044cclbSeL1WGNxMiGx7O[] = {
/* columns rows colors chars-per-pixel */
"128 128 21 1 ",
"  c #FF5A00",
". c #FF5A01",
"X c #FF5B01",
"o c #FF5B02",
"O c #FF5C03",
"+ c #FF5D05",
"@ c #FF5D06",
"# c #FF5F08",
"$ c #FF5F09",
"% c #FF600A",
"& c #FF610A",
"* c #FF610B",
"= c #FF630E",
"- c #FF6410",
"; c #FF6511",
": c #FF6714",
"> c #FF6815",
", c #FF6816",
"< c #FFF1E9",
"1 c #FFF1EA",
"2 c #FFFFFF",
/* pixels */
"22222222222222222222222222222222222222222222222222222222222222222222222222222222222222222222222222222222222222222222222222222222",
"2              OO              @@              OO        22   O*%    22@       OO              @@              OO              2",
"2              OO              @@              OO        O22%%%>>%%%22@        OO              @@              OO              2",
"2              OO              @@              OO          2<<<<<<<<2@         OO              @@              OO              2",
"2              OO              @@              OO          O***,>*%*@          OO              @@              OO              2",
"2              OO              @@              OO              *%O             OO              @@              OO              2",
"2              OO              @@              OO              *%              OO              @@              OO              2",
"2              OO              @@              OO              *%O             OO              @@              OO              2",
"2              OO              @@              OO              *%              OO              @@              OO              2",
"2              OO              @@              OO              **              OO              @@              OO              2",
"2              OO              @@              OO              **              OO              @@              OO              2",
"2              OO              @@              OO              **              OO              @@              OO              2",
"2              OO              @@              OO              **              OO              @@              OO              2",
"2              OO              @@              OO              **              OO              @@              OO              2",
"2              OO              @@              OO              *%              OO              @@              OO              2",
"2OOOOOOOOOOOOOO@@OOOOOOOOOOOOOO##OOOOOOOOOOOOOO@@OOOOOOOOOOOOOO*=OO@OOOOOOOOOOO@@OOOOOOOOOOO@ @##OOOOOOOOOOOOOO@@OOOOOOOOOOOOOO2",
"2OOOOOOOOOOOOOO@@OOOOOOOOOOOOOO##OOOOOOOOOOOOOO@@OOOOOOOOOOOOO@==O@OOOOOOOOOOOO@@OOOOOOOOOOOOOO##OOOOOOOOOOOOOO@@OOOOOOOOOOOOOO2",
"2              OO              @@              OO              *%              OO              @@              OO              2",
"2              OO              @@              OO              **              OO              @@              OO              2",
"2              OO              @@              OO              **              OO              @@              OO              2",
"2              OO              @@              OO              *%              OO              @@              OO              2",
"2              OO              @@              OO              **              OO              @@              OO              2",
"2              OO              @@              OO              **              OO              @@              OO              2",
"2              OO              @@              OO              **              OO              @@              OO              2",
"2              O@              @@              OO              **              OO              @@              OO              2",
"2              O               @@              OO              **              OO              @@              OO              2",
"2              O@              @@              OO              **              OO              @@              OO              2",
"2              OO              @@              OO              **              OO              @@              OO              2",
"2              OO              @@              OO              **              OO              @@              OO              2",
"2              OO              @@              OO              **              OO              @@              OO              2",
"2              OO              @@              OO              %*              OO              @@              OO              2",
"2@@@@@@@@@@@@@@##@@@@@@@@@@@@@@%%@@@@@@@@@@@@@@##@@@@@@@@@@@@@@;;@@@@@@@@@@@@@@%#@@@@@@@@@@@@@@%%@@@@@@@@@@@@@@##@@@@@@@@@@@@@@2",
"2@@@@@@@@@@@@@@#%@@@@@@@@@@@@@@%%@@@@@@@@@@@@@@%%@@@@@@@@@@@@@@;;@@@@@@@@@@@@@@##@@@@@@@@@@@@@@%%@@@@@@@@@@@@@@##@@@@@@@@@@@@@@2",
"2              @O              @@              OO              *%              O@              @@              O@              2",
"2               O              @@              OO              **              OO              @@              O               2",
"2              @O              @@              OO              **              OO              @@              O@              2",
"2              OO              @@              OO              **              OO              @@              OO              2",
"2              OO              @@              OO              **              OO              @@              OO              2",
"2              OO              @@              OO              **              OO              @@              OO              2",
"2              OO              @@              OO              %*              OO              @@              OO              2",
"2              OO              @@              OO              **              OO              @@              OO              2",
"2              OO              @@              OO              **              OO              @@              OO              2",
"2              OO              @@              OO              **              OO              @@              OO              2",
"2              OO              @@              OO              **              OO              @@              OO              2",
"2              OO              @@              OO              *%              OO              @@              OO              2",
"2              OO              @@              OO              %*              OO              @@              OO              2",
"2              OO              @@              OO              **              OO              @@              OO              2",
"2OOOOOOOOOOOOOO@@OOOOOOOOOOOOO@@#OOOOOOOOOOOOOO@@OOOOOOOOOO@OO@=*@OOO@ @OOOOOOO@@OOOOOOOOOOOOO@##OOOOOOOOOOOOOO@@OOOOOOOOOOOOOO2",
"2OOOOOOOOOOOOOO@@OOOOOOOOOOOOOO%#OOOOOOOOOOOOOO@@OOOOOOO@OOOOO@*=@OO@OOOOOOOOOO@@OOOOOOOOOOOOOO#%OOOOOOOOOOOOOO@@OOOOOOOOOOOOOO2",
"2              OO              @@              OO              **              OO              @@              OO              2",
"2              OO              @@              OO              *%              OO              @@              OO              2",
"2              OO              @@              OO              %*              OO              @@              OO              2",
"2              OO              @@              OO              **              OO              @@              OO              2",
"2              OO              @@              OO              **              OO              @@              OO              2",
"2              OO              @@              OO              **              OO              @@              OO              2",
"2              OO              @@              OO              **              OO              @@              OO              2",
"2@             OO              @@              OO              **              OO              @@              O@             @2",
"22@            OO              @@              OO              **              OO              @@              OO            @22",
"222@           OO              @@              OO              **              OO              @@              OO           @222",
"2 22@          OO              @@              OO              **              OO              @@              OO          O22 2",
"2 %2%          OO              @@              OO              **              OO              @@              OO         O%<% 2",
"2 %2*          OO              @@              OO              **              OO              @@              OO          %<% 2",
"2 %2*          @O              @@              @O              **              O@              @@       O  O   O@          *<* 2",
"2%>2>***%******==%*************;;%%************=***************>>***************=************%%;;******%*%%**%%==**%*****%*><>%2",
"2*>2>**%********=*************%;;*************%==**************>>******************************;;%******%*****%*;%**%*****%><>*2",
"2 %2*          O@              @@              O@              **              @O              @@              OO         O%<* 2",
"2 %2*          OO              @@              OO              **              @O              @@              O@          %<* 2",
"2 %2*          OO              @@              OO              **              OO              @@              @O          %<% 2",
"2 22@          OO              @@              OO              **              OO              @@              OO           22 2",
"222@           OO              @@              OO              **              OO              @@              OO            222",
"22@            OO              @@              OO              **              OO              @@              OO            O22",
"2@             OO              @@              OO              **              OO              #@              OO              2",
"2              OO              @@              OO              *%              OO              @@              OO              2",
"2              OO              @@              OO              **              OO              @@              OO              2",
"2              OO              @@              OO              **              OO              @@              OO              2",
"2              OO              @@              OO              %*              OO              @@              OO              2",
"2              OO              @@              OO              **              OO              @@              OO              2",
"2              OO              @@              OO              **              OO              @@              OO              2",
"2              OO              @@              OO              %%              OO              @@              OO              2",
"2OOOOOOOOOOOOOO@@OOOOOOOOOOO@ @#%OOOOOOOOOOOOOO@@OOOOOOOOOOOO@O==OO@OOOOOOOOOOO@@OOOOOOOOOOOOO@##@ @OOOOOOOOOOO@@OOOOOOOOOOOOOO2",
"2OOOOOOOOOOOOOO@@OOOOOOOOOOOOOO#@OOOOOOOOOOOOOO@@OOOOOOOOOOO@OO==O@OOOOOOOOOOOO@@OOOOOOOOOOOOOO##OOOOOOOOOOOOOO@@OOOOOOOOOOOOOO2",
"2              OO              @@              OO              %%              OO              @@              OO              2",
"2              OO              @@              OO              **              OO              @@              OO              2",
"2              OO              @@              OO              **              OO              @@              OO              2",
"2              OO              @@              OO              *%              OO              @@              OO              2",
"2              OO              @@              OO              **              OO              @@              OO              2",
"2              OO              @@              OO              **              OO              @@              OO              2",
"2              OO              @@              OO              %*              OO              @@              OO              2",
"2              OO              @@              OO              **              OO              @@              OO              2",
"2              OO              @@              OO              **              OO              @@              OO              2",
"2              OO              @@              OO              **              OO              @@              OO              2",
"2              OO              @@              OO              **              OO              @@              OO              2",
"2              OO              @@              O@              **              OO              @@              OO              2",
"2              OO              @@              O               **              OO              @@              OO              2",
"2              OO              @@              O@              %*              OO              @@              OO              2",
"2@@@@@@@@@@@@@@#%@@@@@@@@@@@@@@%%@@@@@@@@@@@@@@%#@@@@@@@@@@@@@@;;@@@@@@@@@@@@@@%#@@@@@@@@@@@@@@%%@@@@@@@@@@@@@@##@@@@@@@@@@@@@@2",
"2@@@@@@@@@@@@@@##@@@@@@@@@@@@@@%%@@@@@@@@@@@@@@##@@@@@@@#@@@@@@;;@@@@@@@@@@@@@@#%@@@@@@@@@@@@@@%%@@@@@@@@@@@@@@##@@@@@@@@@@@@@@2",
"2              O@              @@              O@              *%              OO              @@              O@              2",
"2              O               @@              O               **              OO              @@              O               2",
"2              O@              @@              O@              **              OO              @@              O@              2",
"2              OO              @@              OO              **              OO              @@              OO              2",
"2              OO              @@              OO              **              OO              @@              OO              2",
"2              OO              @@              OO              **              OO              @@              OO              2",
"2              OO              @@              OO              **              OO              @@              OO              2",
"2              OO              @@              OO              **              OO              @@              OO              2",
"2              OO              @@              OO              **              OO              @@              OO              2",
"2              OO              @@              OO              **              OO              @@              OO              2",
"2              OO              @@              OO              **              OO              @@              OO              2",
"2              OO              @@              OO              *%              OO              @@              OO              2",
"2              OO              @@              OO              **              OO              @@              OO              2",
"2              OO              @@              OO              **              OO              @@              OO              2",
"2OOOOOOOOOOOOOO@@OOOOOOOOOOOOOO%#OOOOOOOOOOOOOO@@OOOOOOOOOOOOOO**@OOO@ @OOOOOOO@@OOOOOOOOOOO@ @##OOOOOOOOOOOOOO@@OOOOOOOOOOOOOO2",
"2OOOOOOOOOOOOOO@@OOOOOOOOOOOOOO##OOOOOOOOOOOOOO@@OOOOOOOOOOOOO@==@OO@OOOOOOOOOO@@OOOOOOOOOOOOOO##OOOOOOOOOOOOOO@@OOOOOOOOOOOOOO2",
"2              OO              @@              OO              %*              OO              @@              OO              2",
"2              OO              @@              OO              %%              OO              @@              OO              2",
"2              OO              @@              OO             O**              OO              @@              OO              2",
"2              OO              @@              OO              **              OO              @@              OO              2",
"2              OO              @@              OO              %*              OO              @@              OO              2",
"2              OO              @@              OO             O**              OO              @@              OO              2",
"2              OO              @@              OO              %*              OO              @@              OO              2",
"2              OO              @@              OO              %%              OO              @@              OO              2",
"2              OO              @@              OO             O**              OO              @@              OO              2",
"2              OO              @@              OO              %*O             OO              @@              OO              2",
"2              OO              @@              OO          O%%%>>%%%O          OO              @@              OO              2",
"2              OO              @@              OO         @2<<<<<<<<2@         OO              @@              OO              2",
"2              OO              @@              OO        @22***>>%**22@        OO              @@              OO              2",
"2              OO              @@              OO       @22    %% O  22@       OO              @@              OO              2",
"22222222222222222222222222222222222222222222222222222222222222222222222222222222222222222222222222222222222222222222222222222222"
};
