/* XPM */
static char *proto_vio[] = {
/* columns rows colors chars-per-pixel */
"128 128 18 1 ",
"  c #3C3FA2",
". c #423CA8",
"X c #4E2CB8",
"o c #4E2EBC",
"O c #5B38B2",
"+ c #5731B8",
"@ c #5832B8",
"# c #5833BC",
"$ c #3C41A6",
"% c #3C42A9",
"& c #4342A5",
"* c #5D1DCA",
"= c #6116CF",
"- c #6C1DCF",
"; c #6928C0",
": c #6D26CA",
"> c #712CC0",
", c #7522D0",
/* pixels */
"            $$               XX               $$            @@O,:O++.           $$               XX               $$            ",
"            $$               XX               $$              .@X. $            $$               XX               $$            ",
"            $$               XX               $$               X@               $$               XX               $$            ",
"            $$               XX               $$               O@               $$               XX               $$            ",
"            $$               XX               $$               @@               $$               XX               $$            ",
"            $$               XX               $$               @@               $$               XX               $$            ",
"            $$               XX               $$              $OX$              $$               XX               $$            ",
"            $$               XX               $$              .X@.              $$               XX               $$            ",
"            $$               XX               $$               OO               $$               XX               $$            ",
"            $$               XX               $$               @X               $$               XX               $$            ",
"            $$               XX               $$               @O$              $$               XX               $$            ",
"            $$               XX               $$               @@               $$               XX               $$            ",
"$$$$$$$$$$$$&&$$$$$$$$$$$$$$$X#%$$$$$$$$$$$$$$&&$$$$$$$$$$$$$$$@O  $$$$$$$$$ $$$&&$$$$$$  %$ %%%$XX%%$$$$$$$$$$$$$&&$$$$$$$$$$$$",
"$$$$$$$$$$$$%&$$$$$$$$$$$$$%$XX%$$$$$$$$$$$$$$%&$$$$$$$$$$$$$$ #O $$$$$$$$$$$$$$%&$$$$$$%%$$   %%XX$$$$$$$$$$$$$$$$&$$$$$$$$$$$$",
"            $$               XX               $$               #+               $$              $XX $             $$            ",
"            $$               XX               $$               #@               $$               XX              $$$            ",
"             %               XX               $$               @@$                               XX               $$            ",
"            %%               XX               $$               @@                                XX               $$            ",
"            %                XX               $$               @@               $$$              XX               $$            ",
"            $%               XX               $$               @@               %$               XX               $$            ",
"            %                XX               $$               @@               $$               XX               $$            ",
"            %                XX               $$               @@               $$               XX               $$            ",
"            %%               XX               $$               @@               $$               XX               $$            ",
"             %               XX               $$               @@               $$               XX               $$            ",
"             %               XX               $$               @@               $%               XX               %%            ",
"             %               XX               $%               @@               %                XX                             ",
"            %%               XX                %               @@               $$               XX                $            ",
"            %                XX               %%               @@               $$               XX                             ",
"                             XX                                @@ $             $$               XX           $%  %%            ",
"        $$                   XX                %               @@ $$            $$$$             XX            %  %        $    ",
"XXXXXXXXXXXXXXXXXXXXXXXXXXXXX**XXXXXXXXXXXXXXXXXXXXXXXXXXXXXXXX;;XXXXXXXXXXXXXXXXo+XXXXXXXXXXXXXX**XXXXXXXXXXXXXXXXXXXXXXXXXXXX+",
"XXXXXXXXXXXoooXXXXXXXXXXXXXXX**XXXXXXXXXXXXXX#oXXXXXXXXXXXXXXXX:;XXXXXXXXXXXXXXXXoXXXXXXXXXXXXXXX**XXXXXXXXXXXXXXXXXXXXXXXXXXXXX",
"            $$               XX               $$               @+               $$               XX               %             ",
"            $$               XX               $$               @+               $$               XX               %%            ",
"            $$               XX               $$               @+$              $$               XX                %            ",
"            $$               XX               $$               @+               $$               XX                %            ",
"            $$               XX               $$               @+               $$               XX               $$            ",
"            $$               XX               $$               @+$              $$               XX               $$            ",
"            $$               XX               $$               @+               $$               XX               %%            ",
"            $$               XX               $$               @@               $$               XX               %             ",
"            $$               XX               $$               @X&              $$               XX               $$            ",
"            $$               XX               $$               @@$              $$               XX               $$            ",
"            $$               XX               $$               @@               $$               XX               $$            ",
"            $$               XX               $$               @@               $$               XX               $$            ",
"            $$               XX               $$               @O               $$               XX$$             $$            ",
"            $$              $XX               $$               @X               $$               XX               $$            ",
"            $$              %XX               $$              $@O               $$               XX$              $$            ",
"$$$$$$$$$$$$&&$$$$$$$$$$$$$$%XX%$$$$$$$$$$$$$$&&$$$$$$$$$$$$$$$@O $$$$$$$$$$$$$$&&$$$$$$$$$$$$$$ XX$   $ %% %% %$$&&$$$$$$$$$$$$",
"$$$$$$$$$$$$%&$$$$$$$$$$$$$$$XX%$$$$$$$$$$$$$$$&$$$$$$$$$$$$$$$@O    $% $$ $$ $$%&$$$$$$$$$$$$$$$XX$$$$$$$$$$$$$$$%&$$$$$$$$$$$$",
"            $$               XX               $$               @@     $ $$  $ $$$$               +X               $$            ",
"            $$               XX               $$               @+               $$               XX               $$            ",
"            $$               XX               $$               @+               $$               XX               $$            ",
"            $$               XX               $$               @+$              $$               XX               $$            ",
"            $$               XX               $$               @@$              $$               XX               $$            ",
"            $$               XX               $$               @@               $$               XX               $$            ",
"            $$               XX               $$               @@               $$               XX               $$            ",
"            $$               XX               $$               @@               %%               XX               $$            ",
"            $$               XX               $$               @@                %               XX               $$            ",
"            $$               XX               $$               @@                %               XX               $$            ",
"            $$               XX               $$               @@               %%               XX               %             ",
".            $               XX               $$               @@               %                XX               $$           .",
"#           $$               XX               $$               @@               %                XX               $$           @",
"+           $$               XX               $$               @@               %%               XX               $$           @",
"+           $$               XX               $$               @@                                XX               $$           @",
"@           $$         . $   XX               $$               @@               %$               XX  .                         #",
";@@@@@@@@@@@O@@@@@@@@@O#+OXO+;;+@@@@@@@@@@@@@@OO@@@@@@@@@@@@@@@>>@@@@@@@@@@@@@@@OO@@@@@@@@@@@@@@O;;@++XO@@@@@@@@@@O@@@@@@@@@@@#;",
":#@@@@@@@@@@@O+#@@@@@@#o+++++-;+@@@@@@@@@@@@@@@O@@@@@@@@@@@@@@@,>@@@@@@@@@@@@@@@@O@@@@@@@@@@@@@@+-;@@O++@@@@@@@@@@@O@@@@@@@@@@#,",
"@&          $$               XX               $$               @@               $$              $XX  $$.          $         .  #",
"@$          $$               XX               $$               @@               $$               XX               %$           O",
"X.          $$               XX               $$               @@               $$               XX               $$          $X",
".           $$               XX               $$               @@               $$               XX               $$            ",
"            $$               XX               $$               @@               $$               XX               $$            ",
"            $$               XX               $$               @@               $$               XX               $$            ",
"            $$               XX               $$               @@               $$               XX               $$            ",
"            $$               XX               $$               @@               $$               XX               $$            ",
"            $$               XX               $$               @@               $$               XX                             ",
"             $               XX               $$               @@               $$               XX               $$            ",
"            %                XX               $$               @@               $$               XX               $$            ",
"            %                XX               $$               @@               $$               XX               $$            ",
"            $%               XX               $$               @@               $$               XX               $$            ",
"            $$               +X               $$               @@               $$               XX$              $$            ",
"            $$              $oX               $$ $             @@  $            $$               XX$              $$            ",
"$$$$$$$$$$$$&&$$$$% $$$$$$$$%XX$$$$$$$$$$$$$$$&&$$  $$$$$$$$$$%OO$$$$$ $$$$$$$$$&&$$$$$$$$$$$$$$ XX&$$$$$$$$$$$$$$&&$$$$$$$$$$$$",
"$$$$$$$$$$$$$&$$% % $$$$$$$$%XX$$$$$$$$$$$$$$$%&$$  $$$%$$$$$$$@O $$$$$$$$$$$$$$$&$$$$$$$$$$$$$$%XX$$$$$$$$$$$$$$$$&$$$$$$$$$$$$",
"            $$$              XX               $$               @@   $           $$              $XX             $ $$            ",
"            $$               XX               $$               @@               $$               XX               $$            ",
"            $$               XX               $$               @@               $$               XX               $$            ",
"            $$               XX               $$               @@               $$               XX               $$            ",
"            $$               XX               $$               @@               $$               XX               $$            ",
"            $$               XX               $$               @@               $$               XX               $$            ",
"            $$               XX               $$               @@               $$               XX               $$            ",
"            $$               XX               $$              $@@               $$               XX               $$            ",
"            $$               XX               $$               @@               $$               XX               $$            ",
"            $$               XX               $$               @@               $$               XX               $$            ",
"            $$               X+               $$               @@               $$               XX               $$            ",
"            $$               XX               $$               +@               $$               XX               $$            ",
"            $$               XX               $$               @#               $$               XX                             ",
"            $$               XX               $$               @+               $$               XX               %             ",
"            $$               XX               %%               @+               $$               XX               %             ",
"            $$               XX              $%%               @+               $$               XX               %%            ",
"XXXX@XXXXXXXXXXXXXXXXXXXXXXXX**XXXXXXXXXXXXXXXXXXXXXXXXXXXXXXXX;;XXXXXXXXXXXXXXXX#XXXXXXXXXXXXXXX**XXXXXXXXXXXXXXXoo#XXXXXXXXXXX",
"XXXXXXXXXXXXXXXXXXXXXXXXXXXXX=*XXXXXXXXXXXXXXXXXXXXX+XXXXXXXXXX-;XXXXXXXXXXXXXXXXXXXXXXXXXXXXXXXX**XXXXXXXXXXXXXXXooXXXXXXXXXXXX",
"           $$$               XX               $$      $     $  @+               $%               XX                             ",
"           $$$               XX               $$               O+               $%               XX               %%            ",
"            $$               XX               $$               X+$              $$               XX                %            ",
"            $$               XX               $$               @+               $$               XX               %%            ",
"            $$               XX               $$               ++               $$               XX               %             ",
"            $$               XX               $$               +@$              $$               XX                             ",
"            $$               XX               $$               +#               $$               XX               %             ",
"            $$               XX               $$               @@               $$               XX                %            ",
"            $$               XX               $$               @@               $$               XX               %%            ",
"            $$               XX               $$               @@               $$               XX               %             ",
"            $$               XX               $$               @O$              $$               XX               %             ",
"            $$               XX               $$               @X.              $$               XX               %%            ",
"            $$               XX               $$               @O               $$               XX                %            ",
"            $$               XX               $$               @@               $$               XX               $$            ",
"            $$$              XX$              $$               @@               $$               XX               $$            ",
"$$$$$$$$$$$$&&$$$$$$$$$$$$$$$XX$$$$$$$$$$$$$$$&&$$$$$$$$$$$$$%$OO $$$$$$$$$$$$$$&&$$$$$$$$$$$$$$$XX%$$$$$$$$$$$$$$&&$$$$$$$$$$$$",
"$$$$$$$$$$$$$&$$$$$$$$$$$$$$$XX$$$$$$$$$$$$$$$%&$$$$$$$$$$$$$ $@O$$$$$$$$$$$$$$$$&$$$$$$$$$$$$$$%XX%$$$$$$$$$$$$$$%&$$$$$$$$$$$$",
"            $$              $XX$              $$               @@               $$              $XX$              $$            ",
"            $$               XX               $$               @@               $$               XX               $$            ",
"            $$               XX               $$               @@               $$               XX               $$            ",
"            $$               XX               $$               @@               $$               XX               $$            ",
"            $$               XX               $$               @@               $$               XX               $$            ",
"            $$               XX               $$               @@               $$               XX               $$            ",
"            $$               XX               $$               @@               $$               XX               $$            ",
"            $$               XX               $$               @@               $$               XX               $$            ",
"            $$               XX               $$               @@               $$               XX               $$            "
};
