/* XPM */
static char *proto_ora[] = {
/* columns rows colors chars-per-pixel */
"128 128 5 1 ",
"  c #FC4208",
". c #FC470D",
"X c #FC490E",
"o c #FC4D11",
"O c #FC5113",
/* pixels */
"                           ..                .                 o                                 . .               ..           ",
"          .                  .                .               o.o               .                ...                            ",
"                           . .                .                .o                .               ..                .            ",
"          ..               ...               .                o..                .                 .                .           ",
"                           .                 .                o o               .                ..                .            ",
"           .                ..                                oo                                  ..                            ",
"                           ..                .                ..o                .                .                ..           ",
"          o                 ..                .               o.o               .                ..                             ",
"                            ..                                o.o                                 .                             ",
"           o               . .               .                .oo               .                ...                .           ",
"                            .                ..               o                  .                 .               .            ",
"     X     o o  .  . .   . o.o  . .   .  .  .  . .   . .. .   .oo  . . .    . .  .. . .   . . . .... . .. .   .  . . . . .   . .",
"X  X   X     o   .   . . . ... .. .   . .  . .. .  . .    . . ooo .  .  .  .  . . . . . . .  .   o.. .    . .  ..  .. .  .   . .",
"          o                . .               .                ...                .                .                             ",
"          o                 ..                                o.o               .                 ..               .            ",
"                           .                  .               .o.                                ..                 .           ",
"          .                ..                                 .o.                .               ..                ..           ",
"           .                 .               ..               o o                                . .                            ",
"                           . .                                .o.               .                  .                .           ",
"          .                ...               .                .o.                .               ..                .            ",
"           .               .                  .               o.o                .               ..                 .           ",
"           .                ..                                 o                .                  .                            ",
"                           ..                                  oo                                ...               ..           ",
"           .                ..               ..               o.o                .                .                             ",
"          ..                ..                .               o.                ..               ..                             ",
"                           ..                .                .oo                                 .                ..           ",
"          .                 ..                                o .                .                ..                            ",
"                           .                 .                .oo                                ..                 .           ",
". .... . ... ..  .. . .... ... .. .... .. .. o... .. . .. ... ooo . .... . . . .o.. .... . . . .. o... .. .... ... ...   ..   . ",
"..  .  ....... ..  ..  .  ...o. .  .  .. ..  .. ..     . ..   ooo  ..  .. .. .. .. ..  .. .. ..  o . .. .  .  ... ... ... ......",
" . .... . .o . .. .. ....  o.. . .... .  . ..oo  . ....  .. ..ooo  . .. . . . .... . .. . . . ...o.. ..  .... .  ..... .. . .  .",
"                           . .                                o o                .                ..                .           ",
"           .               ...                .               ooo                                  .               .            ",
"           .                 .                                ..o               ..               ...                .           ",
"                           ..                .                o .                .               ..                .            ",
"           .               ..                 .               .o.                                  .                .           ",
"                           ..                 .               o.o               .                ..                .            ",
"          ..                 .                                 o.                .                ..                            ",
"          .                ...               ..               o..                .                .                ..           ",
"                            .                                 o.o               .                ..                             ",
"          .                 .                .                o.                                  .                ..           ",
"           .               ...                                .oo                .               ...                            ",
"                             .                .               o .               ..                 .               ..           ",
"          .                ..                .                .o.                                ..                             ",
"          .                ..                .                o o               .                . .                            ",
"                           ..                 .               .oo                                 .                             ",
".  ..  ..  ..  ..  .. .  . ... ..  ..  .. .  . . ..  .. .    .o . .  .  .  .. . .. ..  ..  ..   ....  .  .  ..  . .. . ..       ",
"  .  .  . ..  .  .  .   .  ....   .  .  .   . .  .  .  .  .   ooo.  . .  .  .   . .  .    .  ..  o...  ..  .  .  .  . .  .. .. .",
"                            ..               ..               o.o                .               ..                             ",
"          .                ..                                 o                  .               . .               .            ",
"                                                               .o               .                  .                .           ",
"          ..               ...               ..               oo.                                .                 .            ",
"                           ...               .                o.o                .               ..                 .           ",
"           .                                  .               .o                .                  .               .            ",
"                           ..                                 o o               .                ...                            ",
"          .                 ..                .               o .                .                .                 .           ",
"                             .                .               oo.                                ..                             ",
"                            ..                                ..o               .                 .                ..           ",
"           .               ..                .                o                  .                ..                            ",
"          .                                   .               .oo                .               ..                .            ",
"          .                 .                                  oo               .                  .                .          .",
"                           ...                                o.                                 ..                .            ",
"                             .                                oo.                                . .                            ",
"oo..o..oo.ooo.o.oo.o..o.oo.ooo.ooo..o..o..o ooooo..o..o..o oo oooo.o.o.o oo o..ooo oo o..o..o.o oooo..ooo.o..oo o.ooo o.o o..o.o",
"oo oo..oo oo ..o.oo .oo...oooo...o oo..oo o ...o..o  oo.oo.oo OOO.o o.oo oo..oo .o o.. o..o .o. oooooo..o..o oo oo oo.o.o o.oo o",
". o...oo.o.ooo.oo oo...ooo.ooo.o..oo .o oo.o oo.oo.oo..o  o ooOoOooo o.. o.oo .oooo. oooo.ooo .o.ooo.. o.oo o...o  ooo o.o o..o ",
"           .               . .                o               .o                .                 .                             ",
"                            .                o                .oo               .                  o               ..           ",
"                             .                .               o..                .               . .               .            ",
"          .                 ..               .                 oo                .                ..               .            ",
"           .                .                                  o                .                .                  .           ",
"                           . .                .               o.o                                 o                             ",
"          .                 .                 .               o.o                .               . .                .           ",
"           .               ...                                o                 .                . .                            ",
"           .               . .                .               .oo               .                ..                .            ",
"                            .                .                o .                .                ..                .           ",
"          ..               . .               .                 oo                                  .               .            ",
"                            ..                                oo.               .                ..                 .           ",
"                           ..                                 o .                .                ..               .            ",
"                           . .               .                .oo                .               . .                            ",
"           .                 .                                .                 .                  .                            ",
"      .  . . .   . ..  ..  o..    . .    ..  ...  .  .  .  .o ooo  o   .  .  .  .. . ..  .. .  ...o.  o   .  .   . .. . .  .. . ",
" ..  ..  ... .. .     .  . o.. . .   . ..  . o   .   . .   o  ooo   . .  .   . . .   .    .  .   ... .. .  ..  .  . .    .     .",
"                             .                .               . .                .               ..                ..           ",
"          .                . .                .               o.o                                . .                            ",
"                           ..                                 ..o               ..                 .               ..           ",
"           .                .                .                oo                 .               ..                             ",
"          .                . .                .               ..o                                 ..               ..           ",
"                            .                 .                o.               .                  .                            ",
"          .                ...                                o..                .               ..                ..           ",
"          ..                 .               ..                oo                .                ..                            ",
"                           ..                                 o..               .                . .                .           ",
"           .               ..                .                o..                                . .               .            ",
"          .                ..                                 .oo                .                ..                .           ",
"          .                  .                .               o.                ..               ..                             ",
"           .               ...                .                .o                                  .               ..           ",
"          ..                ..                                oo.               .                ..                             ",
"                             .                .                oo                                 .                             ",
"  ...  ..  o. ...  ..  ... o.. ..  ... . ..  o. . ...  ..  ...ooo .. . .. . ... o... . .. . ... ...  ..  ..   .....o... ... ....",
".. . ..  ... .. .. .. .. ....o. . .. .. .. ..... .. .. .. .. .ooo  . ...... .  ... . ...... .  ....o. .... ... .   .. ...  .  . ",
" .. .. ..... . o . .. . .  o.o .. . . .. .. ..o . .. . .. .   ooo . . .  . ... ..o .. .  . . . . o.o. .  . ... .. ..... . . . ..",
"           .               .                                  o.o                                .                              ",
"                            ..               .                o.o               .                  .                            ",
"           .               .                  .                o.                                ...               ..           ",
"           .                ..               .                .o.                .               ..                ..           ",
"          .                ..                 .               o o               .                  .                            ",
"                            ..                                o..                                ...               ..           ",
"           .               .                  .               ...                .                .                             ",
"                            ..                .               .oo                                ..                             ",
"          .                . .                                .o.               ..                .                             ",
"          ..                 .               .                ...                .                ..               ..           ",
"                           ..                 .               o.o                                ..                             ",
"          .                 ..                .               .o.               .                ..                .            ",
"           .               . .               .                o .                                 ..                .           ",
"                           . .                                .oo                .                .                             ",
"          .                 .                 .               .o.               .                ..                .            ",
"  . . .. . .. ...   .  .   .o.  . .. ..  ..  o.   . . ..   .  o..  . .   .. .. ...   .  .   . . .....  ... . .   .. .  . .. .. .",
".  .    .  .    . .  .. .. o...     .  .   .  . .  .      .   ooo   . . .  .     . .  ... .  ..  ... ..     .  .   . .. .  .    ",
"           .                ..                                 oo               .                ..                 .           ",
"          .                .                 ..               o..                .               . .               .            ",
"           .                ..               .                 oo               .                  .                .           ",
"          .                ..                 .               o..                                ...                            ",
"          .                 ..                                o.o                .               ..                .            ",
"           .               .                  .               .o.               .                  .                .           ",
"                            ..                .                o.               .                ..                .            ",
"          .                . .                                o.o                .                ..                .           ",
"                             .               .                 o                                  .                .            ",
"          ..               ..                 .               o.o               .                ..                             "
};
