/* XPM */
static char *_93c5929b0f14b2ab9a5b97ef6154b58Va524LJpnfrLOFkg[] = {
/* columns rows colors chars-per-pixel */
"64 64 188 2 ",
"   c #020101",
".  c #0B0001",
"X  c #040009",
"o  c #130101",
"O  c #1C0101",
"+  c #16010A",
"@  c #240101",
"#  c #2B0101",
"$  c #2E0009",
"%  c #340102",
"&  c #3C0101",
"*  c #3E0800",
"=  c #440101",
"-  c #4B0202",
";  c #410C00",
":  c #4C0C01",
">  c #530202",
",  c #5B0301",
"<  c #550A01",
"1  c #5C0B01",
"2  c #500008",
"3  c #551001",
"4  c #5C1401",
"5  c #581B06",
"6  c #620401",
"7  c #6C0601",
"8  c #640C01",
"9  c #6B0C02",
"0  c #640F08",
"q  c #740C01",
"w  c #7C0E01",
"e  c #641303",
"r  c #6C1401",
"t  c #651902",
"y  c #6C1B03",
"u  c #6E1509",
"i  c #6A1D0B",
"p  c #731301",
"a  c #7B1503",
"s  c #731B02",
"d  c #7B1B03",
"f  c #74140C",
"g  c #751C0B",
"h  c #7A190A",
"j  c #741614",
"k  c #761E10",
"l  c #7D1E1A",
"z  c #7C1E14",
"x  c #5E2400",
"c  c #6C2302",
"v  c #6D210D",
"b  c #732504",
"n  c #7C2304",
"m  c #742901",
"M  c #75240D",
"N  c #7B230B",
"B  c #73290E",
"V  c #7D280B",
"C  c #77330A",
"Z  c #78350A",
"A  c #7D3F0E",
"S  c #7E2513",
"D  c #772B13",
"F  c #7D2B16",
"G  c #722314",
"H  c #733111",
"J  c #7E3411",
"K  c #7F3419",
"L  c #7E2A28",
"P  c #7B490E",
"I  c #8B1B07",
"U  c #831F09",
"Y  c #831305",
"T  c #831E16",
"R  c #961711",
"E  c #812304",
"W  c #882207",
"Q  c #852B04",
"!  c #8C2F04",
"~  c #84220E",
"^  c #8C2408",
"/  c #822C0A",
"(  c #892E0F",
")  c #93270D",
"_  c #942C0D",
"`  c #863807",
"'  c #87340A",
"]  c #8D390A",
"[  c #913109",
"{  c #93380B",
"}  c #862F13",
"|  c #8C2D14",
" . c #8A2219",
".. c #812E1C",
"X. c #8B2A1B",
"o. c #942614",
"O. c #912D1D",
"+. c #9D2D15",
"@. c #843415",
"#. c #8C3C16",
"$. c #843318",
"%. c #893119",
"&. c #87381A",
"*. c #88391A",
"=. c #923213",
"-. c #9A3414",
";. c #913D11",
":. c #91321A",
">. c #933D1D",
",. c #9D3A1D",
"<. c #912A21",
"1. c #9E2C21",
"2. c #8B3622",
"3. c #833F25",
"4. c #8D3824",
"5. c #803C29",
"6. c #893E29",
"7. c #963524",
"8. c #993126",
"9. c #9B3C20",
"0. c #90362B",
"q. c #99322D",
"w. c #963F2C",
"e. c #9A3E2C",
"r. c #8E3A3A",
"t. c #903B34",
"y. c #983C3C",
"u. c #A13920",
"i. c #A33C35",
"p. c #99440E",
"a. c #854611",
"s. c #86411D",
"d. c #954115",
"f. c #974F14",
"g. c #92471D",
"h. c #8F501A",
"j. c #A0441D",
"k. c #A85310",
"l. c #8D4723",
"z. c #8D4A2D",
"x. c #994227",
"c. c #9C4921",
"v. c #9C4229",
"b. c #9E5221",
"n. c #975F26",
"m. c #8F4731",
"M. c #924236",
"N. c #9D4031",
"B. c #944C34",
"V. c #9F4D37",
"C. c #92413D",
"Z. c #9F463E",
"A. c #925135",
"S. c #915934",
"D. c #97573C",
"F. c #A84F27",
"G. c #A0592D",
"H. c #A44235",
"J. c #BC4D3C",
"K. c #A2503A",
"L. c #A45D33",
"P. c #BC5E38",
"I. c #BE7227",
"U. c #BF7E2E",
"Y. c #BB613F",
"T. c #A76727",
"R. c #88394F",
"E. c #9E4446",
"W. c #9B4F42",
"Q. c #A04A4D",
"!. c #A44D44",
"~. c #AC5443",
"^. c #A85A44",
"/. c #A2544A",
"(. c #B35749",
"). c #AE5F58",
"_. c #B55C54",
"`. c #906147",
"'. c #B36144",
"]. c #BD7E48",
"[. c #BC6257",
"{. c #BB7551",
"}. c #B37951",
"|. c #D0614D",
" X c #C87241",
".X c #C38145",
"XX c #C68752",
"oX c #C88157",
/* pixels */
"                                                        X                                                                       ",
"                o                                       .                 .                   X   o X       X                   ",
"                                        O         .     .             .             .                                           ",
"                                  . . . .         .   .     .       X               X   . . . .         . O X                   ",
"                          .     X . .   . o   .       . o . o       .     .     . . . .   .     o                 .             ",
"                  . .   .         .         . o . o . . . . o .   o .   . o     O . .       .       .                           ",
"                        . . .         o . o @ X     o @ o . . .       o @         . o + o . .     . . O . o & O             . . ",
"                      . o .           . @ @           X O @ O   O % O $         X   . @     . O @ O . . o       .               ",
"                      .             .           o O .     + .     . o       o o # .                 . o .             o         ",
"                      X       o O o o       O # > O O # o               o O O . o o .     o .     .   .   X   .   X             ",
"                .         . # .   . . .   # > = # o @ # O     @ @ X     o O O o O O o . % & @ . o @ .       . o = .           X ",
"            .       .       X O = # . o o * < # O # O - X       . # o @ > @ @ O + . @ .     . o O . O o   .     . .     X       ",
"                        o O O O O O # 2 > 8 = @ @ @ % @   o % = o % @ # t & . O & %     @ @ # @ O o o + . . o . .               ",
"        . . . . O o O @ # = # @ o O - - o O 7 > & % e .   q I y i % = = # 2 o O # = 8 O > 6 @ O O + # o . . . .   . .       .   ",
"          . o   . @ @ o   o = & # - 1       X - B h y = O % q e < > :     o 9 M < 1 - . o e , # O % ; @ # & o     o O o .       ",
"              . . # @         & 8 1     . .     . O .   ;._ - .   8 .       . h S &         % 0 7 , X     O # @ : .     .       ",
"              . @ @     o o     O   . .   o = @         . > N > 1 X   = 1 > - . .     @ .     . % .           @ .         # #   ",
"          . .     X   . O @ @       . 8 8 = % 8 1   o #     . 0 - % & % @ # .     o > = - &           % * o                   . ",
"      .             . o O # # +     O @ @ & = , = O > > & %       h r & & = < o   & - & 1 F % @   o .   X   .   . O . o .       ",
"        .       o @ + O O # O # % - p : d 1 & 8 # # = - / I.u   O 1 > 6 M f ' # .   o & = r | &   . & - - = # @ . . .           ",
"    . .   .   . # o o @ @ X . % v P s , r = O 8 O @ - = - q t & % 1 - - - = < E 1.s - & = - > f O . , 1 O . .   . .   . .       ",
"    o     . o . X o   . # > 2 4 o . g ~ p ^ 3.K e > : # . . & % & b < & O O U | l.G. .> - @ . > > c = # O O o . O .   . .       ",
"        . o o     . & @ < 8 = O       @ & - @   - n - =.q > 4 A.r n b . + ` / c e.q = o O + @ : @ & % & 1 > = O o . . . X . .   ",
"        . . .   . @   o o       O #               F #.8 y.'.~.O     , (. Xs     = o.t < , X.,.%   # c = = > o     . O .   .     ",
"        o o   X o o o       , & . - & . @ 8 # X     1 =.>.c.@         O @     O O - P p # . O .     # s % X           . .       ",
"              . o o & * @ 7 Y D b r r L q.> @ # #     m.p     & & t :     . & D.y..   X . % @ & O . X       o o o               ",
"  X     .     o o O O o O > o o u , , e.p &  .x.3.a p .   O < 8 E.}.8 & . . # < 7 @ o @ s %.y 2 e @       % + o o # .           ",
"            . . o     O . o > = # o   # < - @ X @ & s .   @ , = . . = [., 9 C > - = 4 e.i., = = > &   X > - + . . o . X         ",
"        . o . .     . # , u 4 1 = B % # 1 s s >.& o = & * 0 q = % # 1 t o > E , p 7.& @ 1 b 9 @ O % = < 0 p -     X   . o . .   ",
"  .   o o . o o % & > t < = O   O s.n.| - - e c 0.~.r . , -.6 } {.oX<.= . @ 6 6 > O + . = - % = 1 # 1 s , & # = @ . o O .       ",
"    .   o O . o @ - - o o # & p V - o % S p = . O S.d.] 8 > < 4 e s b = o & 1 < < t 8 n -.=   @ % = g 2 8 @ O O @ % #   . .     ",
"          . % # # @       = f p o       O O.4 4 v.@   o r & & @ % % 4 Z = d $.< > t '.t 7 4 4 1.F 9 o   @ < # O @ #         . . ",
"              .       .   .       . @ e o o N c.o       # ^.Y r { !.p @   . s.%.= g @ X   # l.Q -         . < > o               ",
"        .           % = % +     8 u.b & .       o f.t.9 # o _.).g & m #     X [ .X<     . @ .         . #   . X     X .         ",
"          .     . % @ .   O     O > = o o # @ O & y & - >   X .     > o . O .   o   # , - = %     . > > d o     . @ . . X       ",
"        . .         . @ 8 - > H - @ > ..L.J.Z.&   . X @ 8 @     & < , & 1 ..>     o # .   . & o O p C v 8 # .   o @ o       .   ",
"              o % O # 1 = & 1 - I = . . # O   O O.:.K.B.8 < % 8 XXb.6 (.r.c < = # > & 1 ..N 8 # e D < = 1 > , = # . . . o .     ",
"          . .   @ % O o O o O   o e x ; 1 7 O c K.Q./.s , 1 s d Q 0 & > 1 , - p `.| 2.z.y y - o % = @ o O # = # # @ o .   .     ",
"      . . .     o o @ o $ 3 # o @ & - v.&.H.Y.Y.E p 4 O @ c ].|.m 1 &.t , - > r.( B.n > = = % = = % = > # @ =     . @ O . .   . ",
"  .   .   . O . # o # 1 O   < N R s 1 1 @.1 . & ! n : @ , > @ % R.y > 8 < - $.*     t ) 9 S g > i 8 < @ # >           .         ",
"        . .     O & # & : t #   o 1 t d 1       . - 5.'.*.&     O C.V 3 5 j.8         & p.0     . $ 6 2 < .   # #               ",
"                  # < > o .       . #.,   . @ - # X   o   @ % o   . m W.M.O   @ = 1 1         o             . O . o             ",
"                        . . & e + . .   o > > w.U.r X   o > - @.y O   @ .   X = < , a.e   . @ 1 c #           o # O . . .       ",
"            o . .       o & , & & .   + % = = @ & 4 # . - - .   o - o     = s # & - > = O F 7   .   # o   O o X . . .           ",
"        . .   o o   .   . o @ # % & 6 l < & > 1 , # @     < h.b h , = . . t T.< % - = - & 1 U S 9 4 , 8 .   % .   .   .     X   ",
"          o o O o + o - = 1 > @ @ , s % j > = = % - % : 1 - 4.X.O % - s F.9 1 9 9 = - & 6 & o = < 8 - o     % & O o + .   . O . ",
"            . o   @ & = = O @ # & >     # o.> o . ~ ,.l.y . X = c 1 ^ O + W 7 & = = & % j e 8 % O @ @ + . % % # @ o O .     .   ",
"              . o @ . % & O @ % : .       % G b o.% o 8 N % O @ O s .     . < h - = o & o   % s =   . # O % % O O .   .         ",
"          .   . .       @ = 8 8 . X # - .   . r ,       % +.k.J M o   & @     % S _ g %       . @ w m O     # @ X               ",
"                            O     . O . . o     o o O . .   = < o X o & & & .     O .   o O o     .                             ",
"      X     .       o . X       . O O @ = u O . # # & < = .       . o @ & .   X     X @ # > : # o     X O       . . .   X       ",
"            .         X @ O     . O = > > = = & @ # @ % # % o . = 8 < O @ # 9 < +   @ O . o o . # . X o o . X   . X   X   %     ",
"          X   . O O o o     o @ % O O O # o   o $ @ @ & % . .   O @ , & @ O O % o   O & = O         o o .     .                 ",
"            . . o o .   . . . # # : o o O . X   O . o O @ O O o O O 6 # @ % @ O     O O # % = = o   . .   . o X . .             ",
"              . . . X     o .     o % @ # % & % o . o o + = -     = o + O O O # o   o O o o o = @   . . O .       .   .         ",
"      . @         o . . . o         . # #     O & 5 % . o & .     . # @ O O @ O O o O . o o O   X . .             X .   . .     ",
"                    . . X     .                     o # @             O # @ o       O @           . o                           ",
"                                  .             X           . .   .                   . .   .         o o                       ",
"                        . . .   .         o . . o o                 o       .   .         o .   .   . . .   .                   ",
"                      . .     .               . .           .   . o o       .               . .                                 ",
"                                      . . $ .           .     .   . o . . .               o . . . .                             ",
"                                X     .       .       .                       . . . . . .           .                           ",
"                                          .   .   O                       . X                                                   ",
"                                            X                               o                                                   "
};
