/* XPM */
static char *a0a69e689b57456dc275effc383612dbdj572RU9WYNMflOZ[] = {
/* columns rows colors chars-per-pixel */
"32 32 2 1 ",
"  c None",
". c black",
/* pixels */
"                                ",
"                                ",
"                                ",
"                                ",
"                                ",
"                                ",
"           .........            ",
"         .............          ",
"        ...............         ",
"       .................        ",
"      ..................        ",
"      ...................       ",
"     .....................      ",
"     .....................      ",
"     .....................      ",
"     .....................      ",
"     .....................      ",
"     .....................      ",
"     .....................      ",
"     .....................      ",
"     ....................       ",
"      ...................       ",
"      ..................        ",
"       ................         ",
"        ..............          ",
"          ...........           ",
"            .......             ",
"                                ",
"                                ",
"                                ",
"                                ",
"                                "
};
