/* XPM */
static char *_de078d6728a4e3da2e13976dc917528KQdxL5FnunVYyt0z[] = {
/* columns rows colors chars-per-pixel */
"50 28 134 2 ",
"   c #000000",
".  c #010000",
"X  c #000100",
"o  c #010101",
"O  c #030000",
"+  c #020001",
"@  c #000200",
"#  c #000201",
"$  c #000301",
"%  c #020200",
"&  c #000002",
"*  c #010103",
"=  c #030002",
"-  c #030102",
";  c #000302",
":  c #010302",
">  c #020202",
",  c #030303",
"<  c #040000",
"1  c #040301",
"2  c #040002",
"3  c #040203",
"4  c #060203",
"5  c #000403",
"6  c #000503",
"7  c #020403",
"8  c #000602",
"9  c #040402",
"0  c #000004",
"q  c #030005",
"w  c #000304",
"e  c #000205",
"r  c #020204",
"t  c #020305",
"y  c #040005",
"u  c #070105",
"i  c #050304",
"p  c #010504",
"a  c #030504",
"s  c #020605",
"d  c #000606",
"f  c #000706",
"g  c #030706",
"h  c #040404",
"j  c #050505",
"k  c #060405",
"l  c #040605",
"z  c #040406",
"x  c #070506",
"c  c #050706",
"v  c #060606",
"b  c #070707",
"n  c #080607",
"m  c #030804",
"M  c #020806",
"N  c #030907",
"B  c #060805",
"V  c #040807",
"C  c #060807",
"Z  c #030708",
"A  c #090708",
"S  c #0B0708",
"D  c #000808",
"F  c #030909",
"G  c #020B08",
"H  c #000A0A",
"J  c #050908",
"K  c #070908",
"L  c #050B09",
"P  c #060A09",
"I  c #070B0A",
"U  c #080808",
"Y  c #090909",
"T  c #080A09",
"R  c #0B090A",
"E  c #090B0A",
"W  c #0A0A0A",
"Q  c #0B0B0B",
"!  c #0B0D08",
"~  c #0A0C0B",
"^  c #0C0E09",
"/  c #0B0B0D",
"(  c #090D0C",
")  c #0B0D0C",
"_  c #0B0F0E",
"`  c #0C0C0C",
"'  c #0D0D0D",
"]  c #0C0E0D",
"[  c #0E0E0E",
"{  c #0F0F0F",
"}  c #0A100E",
"|  c #0B110F",
" . c #0E100F",
".. c #11110F",
"X. c #070F12",
"o. c #0F1110",
"O. c #0E1211",
"+. c #101010",
"@. c #111111",
"#. c #101211",
"$. c #131112",
"%. c #121212",
"&. c #131313",
"*. c #121413",
"=. c #111514",
"-. c #141414",
";. c #151515",
":. c #141615",
">. c #151716",
",. c #161616",
"<. c #171717",
"1. c #161618",
"2. c #121D19",
"3. c #161F1C",
"4. c #181818",
"5. c #191919",
"6. c #181A19",
"7. c #1A1A1A",
"8. c #1B1B1B",
"9. c #1A1C1B",
"0. c #181E1C",
"q. c #1F1F1F",
"w. c #1A2320",
"e. c #202020",
"r. c #252726",
"t. c 262626",
"y. c #272727",
"u. c #282828",
"i. c #292B2A",
"p. c #2E2E2E",
"a. c #2C3C3B",
"s. c #3E403F",
"d. c #3D4C47",
"f. c #414546",
/* pixels */
"E E . . E . j 7 . s . E i r . s . . E . . j . . . j r s . . . . [ J . . <.j . [ f.. . s . J 0.r . s ",
". . 3 3 n . 7 . . . . E . j . n j j j i i E . s s . . . . r . s . @.j . . J r J r D j s i A r j . . ",
"s . } ~ j . E j i i . j s i . j @.j . j E j . s E n . . . 7 r . . / s . j . j . D r . j 3 3 i i j j ",
"} s o.j . . . . E b j E . j . s [ . . s j s . . E j i . . 3 7 j b . . . <.. [ . s . b 3 . +.1.r . s ",
"M s E . j i . s s j . j . j . 3 r j s 3 . . . 7 . . r . . . j j . j E . J . 4.[ . j n . . M r H j . ",
". s j . [ ) s J . . . j . j j j . j j j . . j . . . j j s . . j . E j j . . / . 4 3 . B J M Z a.j . ",
"s C J . J . M 7 s i . j s A i j . j s j r . j . j J j A j . . . r . . j . . . . . . 9 7 . r r X.E . ",
". . . . s M w.3.j j . j i E E [ . j . . j . j . . . s j b j i s . . j . s . E 8.j M ... E . r r o.A ",
".  .j E ~ . 7 d.} 7 . I o.E C E j . j . b . j i . o.. s . . . [ j . . [ . j j . . . . . . . r . E  .",
"I >.j . E s G 2.I s 7 7 7 . . s j j r s s . . . . E j . j . r  .r j s . j j . J . j . E . j . j . j ",
". <.j A . . J 7 C ) ~ C . . . s E j . b . j . s . J E . j s . E . j b . . . E . b . j -.s j . s . r ",
"7 J C . E . E . 9 E [ J i s j . j i . j j E j . j j . i i @.. j . E . E E . . . . b j j o.. . j . . ",
"J E 3 . 3 3 . b . . s . 7 . . . i . . s E j j . j r . j j <.3 j j . J . b *.j . s . j r . . J . j r ",
". . 3 . . . 7 @.j . . . 7 . 7 C r . j j [ n j j j . j j E E j j . j . . j . p.j . J . . s b . 3 . j ",
"E . . 3 ) .  .s E J j j 7 7 M I j . j j J j j j j j j E b . . j . s j .  .. . u.s . j b . . b . . . ",
"j E . d.. s . s . J E j . . M I j j . j . j . . j j . o.r . . j j u.. [ r j . j . . ) . / . . 3 j E ",
"j . E j . j C . E j . . =.} . M j s n 3 J r E j . j . . . j j . . i b . j . j . . . b . b . @.s . . ",
"j j . 3 s j . 1.n . ~ . J *.M . E . j j . . j 3 y.j . j j [ . . s j r . J j . j ) . s . s . [ . j s ",
"s . j @.E A . j n j . . 7 . o.o.j j . j . . . . 8.. i s . . j j r j . . j 3 . j b . . E . . [ . J j ",
"s . j [ . E E . . . . 8.s C 9.M s j . E . i s . E E . . j . <.s j . . E j j . s r j . <.J . @.b i j ",
". j r . . J j @.. E n . s i.j C j j j E . j j s . ) . . j . j . j . b <.j j b j E E j 1.9 . E . . . ",
"[ . . . j j i j s j J  .j y.C . j 3 . j . j . . s <.4.. j . . s E . E <.i r E s j i . J . . . . . . ",
"e.. s . . . E . ~ o.. J M s 7 <.Q . s . r 7 j . j E E . . [ . . E . j E j . j . b j . . s / j E . s ",
"s j @.. E . 7 j 7 . 7 C . . . j @.n j . j j E i . . j @.j . r *.[ j j . j . . . . j / . . A . j s . ",
". . . C 7 7 7 7 . s . . j s A E . . j j r E r . ~ . . s j r b . s . y.. j / . . . . j i . j . j i j ",
"j j . C 7 . . j A j n . j . . s s . E i . b j . } . s . r . j r . . +.. . 7 . . . . j . . E . 7 . . ",
"J A . J 7 . . j j j C . j . s . . . E j . j j b ^ 7  .. r s i . . s . j . . . 3 j s E A E 8.r n . . ",
". j . ) C 7 7 j . s j . A . . j . r E j r . A E ! . 9.7 r [ . r . j . E j j J E r . E r b q.. s s . "
};
