/* XPM */
static char *test[] = {
/* columns rows colors chars-per-pixel */
"128 128 11 1 ",
"  c gray9",
". c #2D2D2D",
"X c #393939",
"o c #4A4A4A",
"O c #666666",
"+ c #787878",
"@ c #898989",
"# c #9B9B9B",
"$ c #B0B0B0",
"% c #D1D1D1",
"& c gray92",
/* pixels */
"  ..  ..  ..  ..  ..  X.  ..  ..  X.  ..  ..  X.  ..  ..  ..  ..  ..  X.  ..  ..  ..  ..  ..  ..  ..  ..  ..  ..  ..  ..  ..  ..",
"  ..  ..  ..  ..  ..  ..  XX  ..  ..  XX  ..  ..  XX  ..  ..  ..  ..  ..  .X  ..  ..  ..  ..  ..  ..  ..  ..  ..  ..  ..  ..  ..",
"oXoXooXooXoXooXXooXoXX%%%%&%%%%%%%%$%&%%%%%%%%%%%%&%%%  ..O+##$#%%$$%$%%$$%$$$$$##+Ooo  .XXXXXXXXXXXXXXXXX.XXXooXoXXoXXooXXXoXoX",
"ooXoXoXXooXXoXXoooXXXX$%%%%%&%$%%%%%%%%%&%$%%%%$%%%%%%  ..+O###$$%$%%%$%$%%%#$$%#@++oX  XXXXXXXXX.XXXXX.XXXXXoXXoooXooXXoooXoooX",
"XXXooXoXXoXooXoXXooXXX%&%%%$%$$$%%$%%%%$%%$%$#%%%%$%@+  ..++%$$$+@##++++@+++++++##Xo..  ..Oo@+@+O+@+++++OOoOOoXXXXXXXXXXXXXXXXXX",
"ooooXoXooooXXoXoooXoXX%%$%$$%%#$%$%%$%$$$%%%$$%$%%$$@+  ..+O$$#$++##O+@+++++++++##XX..  ..oO+++++++++++@OOOoooXXXXXXXXXXXXXXXXXX",
"++++O+++@+++++++  XXXX%&$%$%$#%$$$$$$%#$$$%%##$$$%@+oo  ..##%%##++##++##++##++@#+Ooo..  ..++%%%%%%%&%%%%$$$$##+++O++@++++O+++@++",
"@++++++@+++++O++  XoXX%%$$$$$$%%#$%%$$$$%$$$$$#$%%+@oo  .X##$%##@+##++##O+#$++##++Xo..  ..++%%%%%%%%$%&%#$#$##++O+++++@+O+@+++++",
"%%%%$%%%$$##++++  ooXX%%%%####@@##++########@@####OOoX  ..++$#++++++########+O++oOXX..  ..++%%%%$$$$#$%%%%%&%%%%%%%%%$$%%%%%$%%%",
"%$%$%%%$$###+++O  XoXX%%%%####@@##+@########@@####OOXo  ..+@$$++++OO########++++OOoX..  ..O+&%%%$$$$$$$%%%%%&%%%%%%%$$%%%$%$$$%$",
"########@@##O+Oo  oXXX&&##@@########@@##++##++####oOoX  ..XX##+@####++@+@@++##OoXoXo..  ..++%%$$##@+##++##$#@@++++##@+##++##++@@",
"########@@##OOOO  XoXX&&$$@@########@@##++##O+####OoXX  ..XX##++####+O++@@++##oOoooX..  ..@+$%#$##+@##@+####@@+++@##++##+O##++@@",
"$$@@@@@@##+++OoO  XXXX&&%$##++@#++##+@@@@@@@++++##@+Xo  ...XOO+++O##@+####++##OO......  ..+O%&$#++##+O@@+O++@+##++++@@+@##@@@+@@",
"$#@@@@@@##++OOOo  XXXX&&%%#$+O##@+##++@@@@@@@++@##+@XX  ..XX+O@+++##++####O+##OO......  ..O+%%$$+@##O+@@O+++++##+O++@@++##@@++@@",
"$###++##+O@@oooo  X.XX&&$$++@@++####@@++OO++++##++oooo  ..XX.X++####@@+@++++##oo......  ..++%&####++@@OO##@@+O+@##++####++OO##@@",
"#$##+O$$O+@@oooo  ..XX&&$%++@@@+####@@++O++@++#$++oooo  ..XXXX++####@@++++++#$oO......  .X++%%####+O@@OO##@@OO++##+O####@+O+##@@",
"@@####++@@OOXXXX    XX$$$$##+@##+O##++@@+O@@++++##oOoX    XXXoXXOO................    ....OO%%&%@+##+OO+@@OO@@++##+++++O####oO++",
"@@####@+@+OOXXXX    XX%$$$##@@##++##++@@++@@++++##OoXX    XXoX.XOO................    ....oO%%%%++##O+++@@oO@@++##+++@OO####OO++",
"++++++@+OOoXXXXX  ..XX##&&##@@##++++++++@+++O+##++Xo+O    ..XX..............  ..      XXXXXX%%$$++++++++@@@@@@+O@+##++####++##++",
"@++++O++oOXXXXXX  ..XX##&&##@@##@+++@++@++++++##+OooOO    ..XX.............X  ..      XXXXX.$$$%+@@+++++@@@@@@+O++##++#$##+O##+@",
"OoOooOOOoXXX....    XX++$%++##+++++O++++##O+##+@##oooo..  ..XX..              ..  ..  XXXoXX$%##+@##O+##++++++OOoOOooooooOoooooo",
"OOoOOOOoXXXo....    XX@+%%++##@+++OO@+++##++##++##oOoo..  ..XX..              ..  ..  XXoXXX$$##++##++##@+O+++OOOoooooooOoooOooO",
"oXooXXXXXX        ..X.Oo%%##O+@@+OOOOO##@@++OOOO++OoOo..  ..X.XXXXXXOoO+++##@@####@@OO..XoXX$$++OoOOOoooOooXXoXooXXXoXXXXXXXXXXX",
"XoXoX.XXXX        ....OO&%##++@@OOOOO+##@@+@++OO+@oOoo..  ..XXXXXXXXOOOO++##@@#@##@@oO..XXXX$$@+oOoOoOoooooooXoXXoXXXXXXXXXXXXXX",
"          ..  ..  ..XoXX%%$$@+@+++@@@@O+++##OO@+$#+@XX..  ..X.oO####$%%%&&%%%$%%@@OooX  oXXX++OooOooooXXXX.X..........  ..  ..  ",
"          ..  ..  ..oXXX&%%$++++++@@@@++++#@O+++##++Xo..  ..X.OO####%%%%&&%%%%%%@@oOXo  XoXX++oOoooooXXXXXXX..........  ..  ..  ",
"  ..  ..    ..  ....XXXX##%%+@##O+OO+@##@+++@@+++OOOXo..    ..##$$%%%%#$+O##++##O+OO..  ........X.............                  ",
"  ..  ..    ..  ....XoXX##%$++##++OO++##++O+@@@+O+OoXX..    ..###$%&$%$$O+##@+##+OOO..  ........X.............                  ",
"....................XXXX++$%##++##@@+OOO@++O++##+@Xooo..  ..X.##%%#$##++++++++++++XX..  ..    ..    ..    ..  .X.X..............",
"...X................XXXX@@$$##O+#$@@++OO++OO++##++XXoo..  ...X##%%$$##++++@+O+++++oX..  ..    ..    ..    ..  ..................",
"XoXX............  ..XoXXOO%$+O##@@++@#@@##++##++##oXoOX.    XX##&&$#++++##++##+O##oX..  ..XXooXoXooo  XXXXXXXXXXXXXXXXXXX.XXXX.X",
"oXXX............  ..oXXXoO$$O+##@@++##@@##+O##O+##XXOOXX    XX##&&##+++O##@+##O+##Xo..  ..XXXooXoooX  XXXXXXXXXXX.XXX.XXXXXXXX..",
"@@@@++@@++@@+@@@@@    oXXX$$#$+@+@++@@@@OO++++@+@+OoooXo    XX##&&O+++####O+##@++@Xo..  ..OO##%%%$ooXXXoOO@@@@++@@@@@@@+@@@@@@@@",
"@@@@@+@@+@@+++@@@@    oXXX$%$$@@+++O@@@@Oo++++++++oOXooo    XX##&&++@+####++##++++XX..  ..oo#$%&%%oX.XoXOO@@@@@@@@@@@@++@@@@@@@@",
"%%$$%$%%$$%%#$##Oo..  ooXX+@$#+@##++OO++++++##+@Oo@+OoXX    XX##$$####+@+O##++##++oX..  ..##%%$$##  XXOO$%%%%&%%&%%%&%%%%%%$%%%%",
"$%$%%%$%%$%%$$##OO.X  ooXX++$$++##++O+++++++##++oO++oOXX    XX##%$####++O+##+@##O+oo..  ..##%$%$##  XXOO$$%$%%%%%%$%%%%%%&%%%%%%",
"##@@+@##++####oooO..  XoXXOO@@##++####O+##OO++OooXOooXXX    XX##$$##+@oOOOOOOooXXoXX..  ..%%%$##O+  XX@@%%$%$#$$##$#$##$##$$$#$#",
"##@@++##++####OOOO..  oXXXoO@@##+O####++##OO@+oOXoOOXoXo    XX##$%##++OooOOooOXoooXo..  ..$%$$##++  XX@@%%%%$$#$##$$$$$$####$$$$",
"##++@@++##+O++oOOO..  XXXoXX@@++oOOOoOOOXXoXOOXooOXoXX      ..@@+@OO@+OO..............  oo%%##@+++  XX@@%%####@@##++##++@@O+@@+@",
"##@+@@+@##++++OooO..  X.oXXX@@++OOoOOoOooXXXOOXXOOoXXX      ..@@++oO++oo.............X  oo&%##++++  XX@@%%####@@##@+##++@@++@@@@",
"##+@++##++####oOXo..  XXXoXXOoXooooXooXXXXX...                ++OO......                oo&%$###++  XX@@%%##++@@++@@++@@OOO+++++",
"##++++##O+####Oooo..  XXoXXXoooXooXXoXXXXXXX..                @+OO......                oo%%####+O  XX@@%$##++@@O+@@+@@@Oo+O+++O",
"##++$#+@##+O++OOoX..  XXXoXX  ..  ..                        ....XX..          ..    ..  ++%&####++  XX++$$++##@@##++##++@@++@@@@",
"##++##++##O+@+OoXX..  XXoXXX  ..  ..                        ...XXX..          ..    ..  +@%%####++  XX++%$+O#$@@##+@##++@@+O@@@@",
"++##OOOO++++##oOXo..  ..XXooXXX.                XXXXoXXXXXXXXX++@+@+####++++++OOXo  XXoo$$%%##O+OO  XXO+$$##++@@++@@+O@@OOOO++++",
"+@##OoOO+@++##Oooo..  ..XooXXX..                oXXXXXXXXXXXXX++++++####@+@+@+O+oo  ..oO$$%%##++O+  XX+O$%##+O@@++@@++@@+OOO+++@",
"++++O+OO@+##++oOX...  ..++%%%&%%$%$$####@+oo..XXOo+O####$$$%%$%%%%&%%%%%&%&%$$@@oo  ..+O%%$$@@##OO  XX++$###+@++##++##++OOO+++++",
"+++O++O+++#@++ooXX..  ..++%%%%&%%%%$####@+oo..XXooOO####$$$$$%%%&%%%$%&%%%%%$%@@oO  ..OO%%%$@@##oO  XXO+$$##@@++##O+##++OOOO@+@+",
"+++@####+O+++@oooX..  ..%%$%##++@@@@##++@@..XoXX+O%%&&%%%%$$$$$#$$$$$$$$$$$#$$Oooo  ..@+%&##@@++Oo  XXoO$$O+##++++@@+++O##++##++",
"+@++####O+++++ooXX..  ..%%$$##@+@@@@##@+@@..XXXoOO%%&&%%%%%$$$#$%$$$%$$$%$$$$%oOoX  ..++%%##@@++oO  XXOo%$+O##++++@@++++##++##@+",
"@@##O+++##++OOXX....  ..%%@@++@@####++@@##  oXXX@@%%$%@+##O+##@@O+@#@@##@@++++oOXX  ..++&&##O+##oo  XXXX++OOooooXooooOOooOO+++++",
"@@##++@+##O+OOXo....  ..%%@@++@@####@+@@##  XoXX@@%%$$++##++##@@++##@@##@@++++ooXX  ..++&&##++##Xo  XXXX++O+ooXoXXoXOoooOoOO+++O",
"oooooOooOooXXX......  ..%%######O+##++$#oo. XXXX@@&&$#@@##++OO####++++@+##++##Xo.X  ..O+&&####+@oX  Xo  X...XXXXXXXXXXXXXXXoooXo",
"OOooooooooXoXX......  ..%%######++##++##oo  XXXX@@&&##@@##+@+O####++O+++##O+##XoXX  ..++&&####++oo  oX  ....XXX.XXXXXXXX.XoXoXoX",
"XoXXXXX.....          ..%%++##++####++OOoo  XXXX@@&&O+##++@@##+O++OO++##++@++@XoXX  ..++&&++##++Xo  Xo..                  ....XX",
"oXXXXX......          ..%%O+##++####@+OOoo  XXX.@@&&++##++@@##O+++O+++##++++++XXXX  ..++&&+O##++XX  oo..                  ....XX",
"              X.  XXXXXX%%$#@@+O##++##OOoo  ..XX@@&&++++##+++++O++OO+++O++##++XoXX  ..O+&&####++oo  oo..............  ..        ",
"              ..  XXXXXX%%##@@++##++##OOoo  ..XX@@&&+@@+##O+++OO++O+++O++@##++XXXX  ..++&&####O+oo  oo.........X....  ..        ",
"XXoooooO++@@+++++@+@XX  %%##Oo@@++##O+O+oO..  XX++&&##++++++O++++O@+##O++@++##oXXX  ..+@&&++####XX  oXXX..XXXXoXXooXoXoXoo......",
"XXoOOoOo+@@@++O+++++XX  &%##OO@+@+##+O++Oo..  XX++&&##++O+++OO@+OO++##OO+++O##XoXX  ..++&&++####XX  ooX..XXXoXXoXXooXoXXoX......",
"oO+@$$%&%%%%%%%$$%##OO  %%####O+OO++##+Ooo..  XX++%%$$@@++##+@##Oo+O+++O++##+OXo..  ..@+%$+@++##XX  XX##%%%$#$@+ooooXXXXXXXXXXXX",
"oo++$#%%%%%%$%%%$$##oO  &%####+++O+@##++oO..  XX@+%%$$@@++##++##OOOO++OO++##++oo..  ..++%%++@+##Xo  XX##%%%%$$++ooooXXXXXXXXXXXo",
"OO##%%$$$%$$#####@##X.  &&+@@@##OO++##@@OoXX  XXOO%%$%##+O++OO++OOOO##++##O+++XX..  ..@+%%##++++oo  XX%%O+++$#%&%%%%%&%%%%++..oX",
"oo##$%$%$$#$####@@##..  &&++@@##OO++##@@oOXX  XX+O$%$$##++++OO++OO+O#$++##++O+XX..  ..++&%##@+++oX  XX&%++@+#$%%&%$%%%&%&%@+..Xo",
"Oo%%#$####O+##@+##+OOO  &&@@##++####+O##OoXX  ..Xo%$%%####@@++##++@#OOOO++##oooo..  X.++%%++##++Xo  XX%%@++O####+O++##++++++..XX",
"oO%%$$####++##++##O+OO  &&@@##++####O+##oOXX  ..XX$$%%####@@@+##+O##O+OO+@##oOoo..  X.++%%++##++XX  XX%%++++####++++##++O+++..XX",
"Oo$%$#@@O+##++##++##Oo  &&@@++@@##++##O+oOoX    oo##&&####@@++++OO++OOOO##++OoXX..  XX+@$%####++oo  XX&%####+O++####+O##++oo..XX",
"Oo%%#$@@O+##+@##+O##OO  &&@@O+@@##++##++OoXo    oo#$&&####@@@++++O@+OOO+##+OOOXX..  XX++%%####O+oo  Xo%%####O+++####++##++oo..XX",
"oo%%##+@##++####OO##XX  %%$#####++++@+##ooXo  ..Xo++&&$$##++##++++@@++##++##ooXX  ..X.++%%@@++##oX  XX$%##++####++++##++##oo..XX",
"oO%&##++##++####OO##XX  %%######@++@++##oOXX  ..XX++&&$###++##+O++@@+O##++##ooXX  ....@+%$@@@+##XX  XX$$##++###$O+++##+@##oo..XX",
"oO%%####@+++@@@@##+Ooo  %%$#+O@@OO####@@oooo    XXOo$%$$##@+OO@@++++@@++@++@oo..    XX+@%$++##XXoo  XX%$##@@##++##++++##@@oo..XX",
"oo%&####+++@@@@@##O+oo  %%$$OO@@O+####@@oooo    oXoO%%#$##++O+@@+O++@@+++++@oo..    XX++%%+@##XoXo  XX%$##@@##++##O+++##@@Xo..XX",
"Oo%%##++####+@##+O##Xo  $%%%++@@##+++++@oooX    XXXo$$%%##+O##++##+@##O+@+Oooo..  ...XOO##OOoX......X.####++##@@++##++O+##oX....",
"oO%%$$++####++##++#$oX  $$%%++@@##++@+++oooo    XXoo#$%%##++##+@##++##++++oooX..  ..XXOO##O+XX.......X####++##@@@+##++++##oo....",
"oo%%$$##@@++##++@#++XX  $$%%OO##++++@+##oOoo    ..XX++$$##@+OOoooooX.XXXX.......  ...Xoo..........XX  OOXXXXXoXoXoXooXoXoXoX....",
"Oo&%#$##@@++##@+##++oX  $$%%OO##O+++++##OooX    ..oX++#$##+@OOoOooXXXXXX........  ....Xo........X.XX  oOXoXXoXoooXooXoXoooXo....",
"oO%%##++####++##+O##Xo  @@%%@@OO####+O++oOXo    ..oXXX++++oooXXXX.                ..XXoXX.XXXoXooXXooX                        ..",
"oo%%##@+####O+##OO#@oX  @@$%@@O+####++++OOoo    ..XoXX+@++ooooXX..                ..XXXXXXXXXXoXoooXoo                        ..",
"Oo%%$$+++O@@##++##++oX  OO%%##@@##O+@+##oooX      oXXX..  ..        ..  ..    ..  ..XXXoXoXXXXXXXX.XXXXXXXXX....................",
"oO%$$$++O+@@##++##O+oo  +O&%##@@##++++##OoXX      XXXX..  ..        ..  ..    ..  ..XXoXoo.XXXXXXXXXX.XXXXXX....................",
"oo%&#$####+O@@##++##oX  oX&&++@@++++##+OoooX    ..XXX.XX..........XXXXXX..XXXXXXXXXXXXoXXoOOO+OOOOO+OOOOOOOOOOOOO+OOOOOOOOOo..Xo",
"Oo%%$$####++@@##@+##Xo  oo&&++@@+++@##++oOXo    ..XXXXXX..........XXXXXXX.oXXXXXXXXXXXoooXOOOOO+OOOOOOO+O+OOOO+OOOOOOOO+OOOO..XX",
"oo%&##@+++##+O##++OooX  XX&&##+++OO+++##OooX      ..oo+OOOOOOOO++OO+OOOOOOOO+O+O++++++@@##$$##$$$$%$$$%$$#$#$$$#$$$$$%$#$$+O..oX",
"OO%%##++++##O+##+@oOoo  XX&&##@+O+OO++##oOoo      X.oOOOO+OOOOOOOOOOO+OOOOOOOOOO++@+++@@###$##$%$#$$$#$$$$$$$%$#%$$#$$$$$%OO..oX",
"oO%$$$####+@##++##XX    XX&&@@+@##+++++Ooooo..    ..OO$$$#%$$$%$$#$$$$$$$$$$%$$$%$#$%%%%%&&&&&&&&&&&&&&&&&&&&&&&%%%%%%%%@+Oo  XX",
"oo$$$$####++##++##XX    Xo&&@@++##++@++OOooo..    ..+O%%$$$$$#$$$$%%$%#$%$$$$$#$$$$$%%%%%%&&&&&%&&&&&&&&&&&&&&&&%$%%%%$%++oo  XX",
"OO%%#$++##++####O+oo  ....&&+@##O+@@++##oOXX..      OO$$$%&&&&&&&&&&%&%%&&&&%%&&&&&&&&&&%&&%%%%%#$$#$#%$$$##$$$%$$##$%$$O+oo  Xo",
"oo%$$#++##@+####++Xo  ..X.&&++##OO@@+O##oooX..      OO%$$$&&&&&&&&&&%%%%&&&&&%&%&&&&&&&&%%%%$%%%$$#$$$$$####$$$$$#$$$$$#OOoo  XX",
"oo#$$$##+@##+O+++@XX  ..XX%%####+O##+@++ooXo..      +O%$$$$#%$$$$%$#$$$#$$$$##$$$$$$$$@###@@@@@+++##++##++++++##++##@+##oOoo....",
"Oo$$#$##++##O+++++Xo  ..XX%%####O+##++++Oooo..      OO$$%$$$$$#$$$$$%$##$#%$###$%$$$#$####@@@@++++##++##O+++++##O+##++##OoXo....",
"XX$%++++##+OOOOooOXo  ..XX%%++++##+O##++oOoo..      oo$#%%$#+@++O+++++++##++####++++@@######++OO@@++####@@++##@+####@@++oOXo  ..",
"XX$$+O++##++OOoOOOoX  ..XX%$+O++##++##++OooX..      oO$$%%$$++@+++++@++@#@+O####++++@@######++O+@@+O####@@O+##++####@@@+OooX  ..",
"XX$$####@@++XXoXXo    ..XX$###++++##++++oOXo..      XX%$%%$$++@+++##++@@++@@##+O@+@@####++@@++@@+++++O+O@@@@++##+O##++##oOoo....",
"XX$#####@@@+ooXooX    X.XX$$##+O++##++++OOoX..      XX$$&%$$++++++##++@@@+@@##O+++@@####+O@@++@@++++OO++@@@@@+##O+##@+##Oooo....",
"XXOOOOOOooXoXooXXo  ......+@@@##++@++@OooOXo..        $#%%$%####++++@+@+O+++++##++@@+O##+@OO+O++##++++@#++OOOO+@OO@@++++OooX  ..",
"XXOOOO+OoXoXooXooX  ....X.@@@@##O++++@oOoooX..        $$%%%%####+O++++++OO+++O##@+@@++##@@+O++++##++++##++O+oO++OO@@+@++OOXX  ..",
".X..      ooXoXooo  ..X.XXO+oOooooOooooooXoX..      ..##$%%%+++O##++##+++@##++O+OO@@@@O+##++##+++@##+O++OO+++@O+##++oO++oooX  ..",
"XX..      oXoXoXXo  ....XXOOooooOooOooOoooXo..      ..##%%%$++++#$++##O+++##++OOO+@@@+++##++##@+++#$O+++OO++++++##++OO+OoOoo  ..",
"XoooXoXX..        .....XX.....X.....X.........        ++%%#$##@+++##+O##+O++++@@+O@@++@@OO##+++@+O+++@@+O+##+++O+++++OO+OOXX  ..",
"oXXooX.X.X        .....X......................        @+$%$$##++++#@++##OO++O+@@OO@@++@@O+##+O++OO++++++++##@+OO+@++O+OOOooo  ..",
"XXXXXXXXXXXXXX..    X.XX....                        ..++@@ooOOoOOoOOOoOo##++####++++OO+O++++OO++++##+O##@++@##+O+@++++@@oOoo  ..",
".XXXXXX.XXXXXX.X    ..XX....                        ..+O@@OOoOOOoOOOOOoO##++####O++++OO++++@OO+@@+##++##++++##O++++++@@@Oooo  ..",
"XXO+########++++ooXXXXoX....    ..    ..    ..  ..  ..XXXX....  ..  ..  ooOOoOOO@+OOOOOOOO+OOOOOOOOOO+OOOOOOOOOO+OOO+OOOooXX  ..",
"XXOO########+++@oOXXXXXo....    ..    ..    ..  ..  ..XoXX....  ..  ..  XXOOOoO+++OOOOO+OOOOO+OOO+OOOOOOOOO+OO+OOOO+OOOOoOoX  ..",
"X.##%$%$%%%%%%%%#$####++OoooooXX.....................XooX.XX............  XXooXXoooXooXoXoXooXXoXXoXoXoXoXoXoXoooXoooXoXoX  ....",
"XX##$$%%%&$%%%&%$$#$##++oOooooXX...........X.........XXoXXXX............  XXoXoXXoXooXoXoooXoooXXoXoooXoooXoXooXXoXoXoXoXo  ....",
"XX##$%####+@#$$%%%%%%%$$##############@@+++++OOOOOOoOooOXXXoX.XX.X..XX....  ..  ..  ..  ..  ..  ..                          ..X.",
"XX##%%####++$$%%%%%&%%$$##############@@++++O+++O+oOooOooXooXXXXXX..XX....  ..  ..  ..  ..  ..  ..                          ....",
"XX##%%######$###@+###$%%%&%%%$%%%$%%%%%%%%%%&%$$%%%$$$##########+OXXXoXX..................    ..  ..  ..  ..  ..  ..  ......XXXX",
".X##%%######$$##++##$$%%%%%%%%&%%%%&%%%%&%%&%%%$%$$$#$#########@++XXoXXX..................    ..  ..  ..  ..  ..  ..  ......XXXX",
"XX##%%$#+O##OOOO##@@+@OO$#O+##++##++####++##++######$$%$%%%%%%$$O+..XXXXXXXXXX......  ..................................X.XXXXoX",
"XX##&%##++##OOOO##@@++OO##++##+@##++####O+##+@######$%%%%%%%$%#$+O..XXoXXX.XXX......  ....................................XXXXXo",
"XX##$%######++##+++@++@@##O+++##OOOo+@##OO+++O++##++##++######OOoO  ..XoXX##%%%%@@+OXXXXXXoXXoXoXXXX..XXXXXX..XXXX..XXXXXXooXXoX",
"XX##$$######@+##@+++++@@##++++##OOOO++##OO+@++++##O+##++######O+oo  ..XXXX#$%$&%@#OOXXXXXXXooXoXXXXX..XXXXXX..XXXXX..XXXXXooXoXo",
".X##%$##+O##O+OO@@##O+####@@+OOO##OO+++O@@++##++##++##++####@@OoXo  ..XXXX%%####%%%%%&%%#$oXoXXX$#%&%%$%%%%&%%$%%%$$##@@+OXXXXoX",
"XX##%$##O+##OOOO@@##++#$##@@O+O+##O+@+OO@@+O##+@##@+##++####@@oooX  ..XXXX%%####%&%%%%%$$$XoXoXX#$%%&%%%%%%%&%%%$%$%##@@OOXXXXXo",
"XX##+OoooooOoooOoooOoooooooooooOooOooOoOooooOoooooooooooooooooooXo..  ..XX%$$$##$$@##$$$$#ooooOO%%#@####@+$#+O##@@##++##$%@@  Xo",
"XX##++oOooOoooOoooOooOooOOoooOoooooOooooooOoOooooOooOoooOoOoOooooX..  ..X.%%$####$##$#$$#$ooooOO%%@@####++##O+##@@##+@##%%@@  oX",
"XX++Oo..........X.............XX..................X.................    XX#$##$##$@@oo@@++oOXX$$##+@##+O######++##++##+O##Xo  oo",
"XX++oo..............................................................    XX$$###$$$@@oo@@+OooX.$###++##O+######O+##@+##++##oX  oX",
"XX..                                                                    XX..XX..oXooooooooooXX%%@@@@@@####++@@##@@@@##++++oX  oo",
"XX.X                                                                    Xo.XXX..XXOoOoOoOOooXX&%@@@@@@####+@@@##@@@@#$++++XX  Xo",
"XXXX......  ..    ..    ..    ..  ..    ..    ..    ..    ..    ..  ..  X.XXoo....          X.oXoXoXoXoXoXoXoXXXXXooXXXooXoo  oX",
"XoXX......  ..    ..    ..    ..  ..    ..    ..    ..    ..    ..  ..  ..oXoX....          ..XoooXoXoXoXoXooooXXoooXoooXooX  Xo",
"oXooXXoXXXXXXXXXXXXXXXXX..................................................oXXoXXXo............XXoX                            oo",
"XoXooXXoXXXXXXXXXXXXXXXX..................................................XXooXXoX............oXXo                            oX",
"..............................................................................X.................................................",
"................................................................................................................................"
};
